<?xml version="1.0" encoding="UTF-8" standalone="no"?>
<svg
   id="_0"
   data-name="0"
   width="794.92"
   height="600"
   viewBox="0 0 794.92 600"
   version="1.1"
   sodipodi:docname="vy003.svg"
   inkscape:version="1.2.1 (9c6d41e410, 2022-07-14)"
   xmlns:inkscape="http://www.inkscape.org/namespaces/inkscape"
   xmlns:sodipodi="http://sodipodi.sourceforge.net/DTD/sodipodi-0.dtd"
   xmlns="http://www.w3.org/2000/svg"
   xmlns:svg="http://www.w3.org/2000/svg"
   xmlns:rdf="http://www.w3.org/1999/02/22-rdf-syntax-ns#"
   xmlns:cc="http://creativecommons.org/ns#"
   xmlns:dc="http://purl.org/dc/elements/1.1/">
  <title
     id="title132">Free Tree Silhouette SVG Cut File </title>
  <defs
     id="defs128" />
  <sodipodi:namedview
     id="namedview126"
     pagecolor="#ffffff"
     bordercolor="#000000"
     borderopacity="0.25"
     inkscape:showpageshadow="2"
     inkscape:pageopacity="0.0"
     inkscape:pagecheckerboard="0"
     inkscape:deskcolor="#d1d1d1"
     showgrid="false"
     inkscape:zoom="1.3566667"
     inkscape:cx="379.60688"
     inkscape:cy="300.36855"
     inkscape:window-width="1920"
     inkscape:window-height="1001"
     inkscape:window-x="-9"
     inkscape:window-y="-9"
     inkscape:window-maximized="1"
     inkscape:current-layer="_0" />
  <path
     d="m760.36,306.8c-1.08,2.33-2.15,4.64-3.82,6.62-1.92,2.27-4.62,4.08-7.49,4.42-2.14.27-4.38-.29-6.43-1.08-1.12-.43-2.18-.93-3.21-1.5-.29.16-.59.34-.88.5-.46.24-.91.44-1.56.83.6.38,1.21.78,1.8,1.16-1.64-.53-3.26-1.06-4.93-1.53-.96-.29-1.93-.55-2.92-.78-3.89-.9-7.99-1.33-11.9-.72-5.35.83-10.37,3.57-14.83,6.83-4.41,3.23-8.27,6.97-12.7,10.04,6.21,3.79,12.43,7.59,18.87,8.15.47.04.94.06,1.42.07.04-.13.07-.27.13-.4.01-.07.03-.13.06-.21.22-.69.44-1.39.66-2.08-.83-2.17-1.12-3.79-1-5.43.16-2.43,1.24-4.9,2.98-6.5,1.16-1.08,2.65-1.78,4.08-2.49,1.36-.68,2.67-1.36,4-2.03.59,2.09,1.19,4.19,1.21,6.37.03,2.54-.71,5.19-2.37,7-1.24,1.36-2.98,2.24-4.75,2.88-.96.34-1.92.6-2.9.8-.1.28-.19.56-.29.83-.15.37-.31.72-.49,1.24,4.29-.19,8.66-1.61,13.06-3.42,2.01-.81,4.01-1.71,6.02-2.61-1.21.8-2.39,1.56-3.55,2.27.56.56.9.84,1.21,1.14.24.24.46.47.68.69,1.09-.25,2.18-.43,3.3-.52,2.08-.18,4.26-.09,6.13.69,2.51,1.08,4.5,3.42,5.63,5.99.99,2.23,1.36,4.62,1.73,7-1.65-.07-3.3-.16-4.98-.21-1.77-.06-3.6-.09-5.28-.63-2.51-.83-4.72-2.82-6.02-5.21-.87-1.59-1.33-3.36-1.49-5.93-.55-.6-1.09-1.19-1.64-1.8-.15-.18-.31-.34-.46-.52-.27.16-.55.32-.81.46-4.6,2.67-8.95,4.48-13.48,5.03-2.48.29-5,.22-7.62-.27-.09.37-.15.66-.22.97-.07.34-.18.66-.27,1,.81.84,1.56,1.75,2.26,2.73,1.27,1.8,2.36,3.83,2.64,5.97.37,2.86-.71,5.93-2.43,8.35-1.5,2.11-3.49,3.72-5.47,5.34-.81-1.55-1.62-3.1-2.48-4.66-.9-1.65-1.86-3.33-2.26-5.16-.59-2.73.03-5.82,1.52-8.29.99-1.65,2.36-3.02,4.62-4.54.21-.68.4-1.36.62-2.02-1.84-.44-3.72-1.08-5.68-1.92-3.26-1.4-6.69-3.38-10.38-5.96-5.44,3.08-11.66,5.04-17.89,5.37-4.78.25-9.57-.47-14.23-1.56-.87-.21-1.75-.43-2.62-.66,6.78,5.72,10.68,7.74,14.45,10.15,2.96,1.89,5.84,4.01,8.26,6.5.5-.47,1.02-.91,1.52-1.37.4-2.42,1-4.06,1.98-5.49,1.46-2.14,3.75-3.82,6.21-4.36,1.65-.35,3.36-.21,5.06-.09,1.61.1,3.17.18,4.75.27-.58,2.23-1.15,4.47-2.3,6.47-1.33,2.33-3.42,4.36-5.91,5.15-1.86.58-3.92.44-5.87.09-1.06-.21-2.08-.47-3.08-.81-.25.19-.47.4-.72.59-.1.09-.21.18-.32.27s-.25.18-.38.28c1.06,1.19,2.02,2.46,2.82,3.82,1.45,2.45,2.4,5.19,3.36,7.93-1.33-2.58-2.68-4.63-4.47-6.61-3.41-3.79-8.3-7.37-13.35-10.06-1.52-.81-3.07-1.53-4.79-2.39-.01.16-.03.31-.06.47-.04.34-.1.68-.16,1.02.9.77,1.74,1.58,2.54,2.48,1.46,1.65,2.74,3.57,3.26,5.66.66,2.82-.09,5.97-1.55,8.57-1.27,2.24-3.08,4.06-4.88,5.87-.97-1.46-1.95-2.9-2.95-4.36-1.08-1.56-2.2-3.11-2.79-4.9-.87-2.65-.58-5.8.63-8.41.81-1.74,2.03-3.24,4.11-5,.1-.56.21-1.14.32-1.7.03-.15.06-.28.09-.43-4.81-2.43-11.24-6.08-22.43-14.61-2.55-.72-5.12-1.36-7.73-1.83-6.71-1.22-13.73-1.4-20.39-.25-6.21,1.08-12.12,3.32-21.87,7.08,7.02,1.61,13.98,3.64,20.5,6.53,2.52,1.12,4.97,2.37,7.36,3.75.68-.47.91-.71,1.15-.93.27-2.4.78-4.06,1.67-5.52,1.33-2.2,3.49-3.97,5.88-4.63,1.62-.44,3.32-.38,5-.35,1.58.03,3.14.03,4.69.01-.44,2.24-.9,4.47-1.93,6.52-1.19,2.36-3.16,4.48-5.56,5.37-1.8.66-3.85.65-5.8.38-1.05-.13-2.08-.35-3.08-.63-.12.1-.22.21-.53.63,5.47,3.26,10.59,7.08,15.41,11.19.29-.37.6-.71.93-1.06.04-.04.09-.1.13-.15.09-2.32.46-3.92,1.19-5.37,1.12-2.18,3.08-4.01,5.31-4.81,1.5-.55,3.14-.6,4.75-.69,1.5-.09,2.98-.19,4.47-.29-.28,2.15-.56,4.32-1.4,6.34-.97,2.33-2.7,4.48-4.94,5.5-1.67.75-3.63.88-5.5.77-1-.06-2.01-.19-2.98-.4-.21.21-.4.43-.6.63-.12.13-.24.25-.38.38,2.11,1.83,4.14,3.72,6.13,5.63-5.03-3.38-10.06-6.77-15.19-9.82-.01.04-.03.1-.04.16-.1.31-.21.6-.31.91.71.86,1.34,1.75,1.93,2.73,1.09,1.77,1.99,3.76,2.11,5.8.16,2.73-1.05,5.54-2.83,7.71-1.55,1.87-3.52,3.27-5.5,4.66-.66-1.5-1.33-3.02-2.03-4.54-.75-1.62-1.53-3.26-1.78-5.01-.38-2.61.4-5.49,1.96-7.71,1.03-1.49,2.42-2.68,4.64-3.97.16-.43.32-.84.49-1.27.03-.07.06-.16.09-.24-5.68-3.32-11.49-6.22-17.58-8.27-1.27-.43-2.55-.83-3.89-1.19-.03.24-.06.46-.09.68-.04.37-.12.75-.18,1.14,1,.84,1.93,1.75,2.8,2.74,1.62,1.84,3.07,3.97,3.63,6.3.75,3.13-.09,6.64-1.71,9.51-1.42,2.49-3.42,4.51-5.43,6.53-1.08-1.62-2.15-3.23-3.29-4.85-1.19-1.73-2.43-3.47-3.08-5.46-.97-2.93-.65-6.43.69-9.32.91-1.95,2.27-3.61,4.59-5.56.12-.68.25-1.36.38-2.03.01-.04.01-.09.03-.13-5.32-1.4-11.74-2.73-21.71-5.22-3.16,1.08-6.31,2.14-9.56,2.98-6.43,1.67-13.2,2.4-19.79,1.92-8.36-.63-16.46-3.24-24.45-6.28-10.15-3.85-20.16-8.38-30.55-9.53-8.05-.9-16.34.24-24.7,1.64-10.75,1.8-21.62,4.06-30.11,10.29-6.27,4.6-11.24,11.38-14.33,18.62-6.19,14.47-4.88,30.73-5.5,46.69-.8,21.15-4.94,41.75-2.2,62.26,2.18,16.37,8.76,32.68,18.58,46.1,7.61,10.4,17.16,19.05,26.72,27.71-4.41.1-8.8.21-13.15-.03-3.08-.16-6.15-.5-9.29-1.11-3.19-.62-6.46-1.5-8.88-3.3-.65-.49-1.22-1.02-2.08-1.4-.59-.28-1.33-.47-1.74-.28-.68.32-.5,1.71-.35,2.86.24,1.93.37,3.27.71,4.73.32,1.37.84,2.85,1.4,4.28.63,1.59,1.33,3.11,2.02,4.63-2.54-1.49-5.09-2.98-7.67-4.39-4.85-2.67-9.85-5.12-15.16-6.75-4.13-1.28-8.45-2.09-12.78-1.81-3.85.25-7.71,1.36-11,3.29-2.67,1.56-4.97,3.66-7.59,5.37-1.86,1.19-3.88,2.2-6.06,2.51-1.77.25-3.64.04-5.22-.72-1.93-.91-3.42-2.67-4.39-4.66-.97-1.98-1.43-4.2-2.79-5.75-1.52-1.73-4.14-2.62-6.58-2.65-3.51-.04-6.59,1.73-9.7,3.27-3.73,1.83-7.49,3.33-11.5,4.2-3.02.65-6.16.96-9.19.58-3.82-.5-7.42-2.08-11.03-3.66,3.89-2.58,7.79-5.15,11.59-7.83,9.54-6.72,18.59-14.2,26.1-23.25,12.36-14.95,20.44-34.25,21.57-53.47.8-13.63-1.89-27.21-3.61-40.7-1.27-10.01-1.99-19.97-1.46-30.23.25-4.88.78-9.82.71-14.75-.1-6.55-1.28-13.05-4.84-18.49-2.86-4.41-7.28-8.13-12-11.35-10.5-7.21-22.5-12.06-34.21-12.93-9.36-.69-18.54,1.15-27.25,4.2-9.54,3.32-18.52,8.08-28.3,10.48-6.95,1.71-14.3,2.24-21.41,1.39-6.4-.75-12.61-2.62-18.82-4.48-9.61,2.39-15.87,3.69-21.09,5.06.16.72.29,1.45.43,2.17,2.3,1.95,3.67,3.61,4.57,5.56,1.36,2.89,1.68,6.39.71,9.32-.66,1.99-1.9,3.73-3.1,5.46-1.12,1.62-2.2,3.23-3.27,4.85-2.01-2.02-4.01-4.04-5.43-6.53-1.64-2.88-2.46-6.39-1.71-9.51.56-2.33,1.99-4.45,3.61-6.3.88-.99,1.81-1.9,2.8-2.74-.06-.38-.12-.77-.18-1.14-.03-.22-.04-.44-.07-.68-1.34.37-2.62.77-3.89,1.19-6.09,2.05-11.9,4.95-17.58,8.27.03.09.06.16.09.25.16.41.32.84.47,1.25,2.23,1.28,3.61,2.48,4.66,3.97,1.55,2.23,2.34,5.1,1.96,7.71-.27,1.75-1.05,3.39-1.8,5.01-.69,1.52-1.36,3.04-2.02,4.54-1.98-1.39-3.95-2.79-5.5-4.66-1.78-2.17-3.01-4.98-2.85-7.71.13-2.03,1.02-4.03,2.11-5.8.59-.97,1.24-1.87,1.95-2.73-.1-.31-.22-.6-.32-.91-.01-.06-.03-.12-.04-.16-5.13,3.05-10.16,6.44-15.17,9.82,1.98-1.92,4.03-3.8,6.12-5.63-.13-.13-.27-.25-.38-.38-.21-.21-.4-.43-.6-.63-.97.21-1.96.34-2.98.4-1.87.12-3.82-.01-5.5-.77-2.24-1.02-3.97-3.17-4.94-5.5-.84-2.02-1.12-4.19-1.39-6.34,1.47.1,2.96.21,4.47.29,1.61.09,3.23.15,4.73.69,2.24.8,4.19,2.62,5.31,4.81.75,1.45,1.12,3.05,1.21,5.37.35.4.71.8,1.06,1.21,4.81-4.11,9.94-7.93,15.39-11.19-.29-.43-.41-.53-.53-.63-1,.28-2.02.5-3.07.63-1.95.27-4,.28-5.8-.38-2.42-.88-4.38-3.01-5.57-5.37-1.03-2.05-1.47-4.28-1.93-6.52,1.56.01,3.11.01,4.69-.01,1.68-.03,3.39-.09,5,.35,2.39.66,4.57,2.43,5.9,4.63.88,1.46,1.39,3.11,1.65,5.52l.09.09c.22.19.49.43,1.06.84,2.39-1.37,4.85-2.62,7.37-3.75,6.52-2.89,13.48-4.93,20.5-6.53-9.75-3.76-15.67-6-21.88-7.08-6.67-1.15-13.67-.97-20.38.25-2.61.47-5.19,1.11-7.73,1.83-11.21,8.54-17.64,12.18-22.44,14.61.03.15.06.28.09.43.12.56.22,1.14.32,1.7,2.08,1.75,3.3,3.26,4.11,5,1.22,2.61,1.52,5.75.63,8.41-.58,1.78-1.71,3.33-2.77,4.9-1.02,1.46-1.99,2.9-2.95,4.36-1.81-1.81-3.61-3.63-4.9-5.87-1.46-2.6-2.21-5.75-1.53-8.57.5-2.09,1.8-4.01,3.26-5.66.78-.9,1.62-1.71,2.52-2.48-.06-.34-.12-.68-.16-1.02-.01-.16-.04-.31-.06-.47-1.73.86-3.26,1.58-4.79,2.39-5.04,2.68-9.94,6.27-13.35,10.06-1.77,1.98-3.14,4.03-4.45,6.61.96-2.74,1.92-5.49,3.35-7.93.81-1.36,1.75-2.62,2.82-3.82-.27-.21-.49-.37-.71-.55-.24-.19-.47-.4-.71-.59-1,.34-2.03.6-3.08.81-1.96.35-4.03.49-5.88-.09-2.49-.78-4.59-2.82-5.91-5.15-1.15-2.01-1.71-4.25-2.29-6.47,1.56-.09,3.14-.16,4.73-.27,1.7-.12,3.42-.27,5.07.09,2.45.55,4.75,2.23,6.19,4.36.97,1.43,1.58,3.07,1.98,5.49.52.46,1.02.9,1.52,1.37,2.42-2.49,5.31-4.62,8.27-6.5,3.76-2.4,7.65-4.42,14.44-10.15-.87.24-1.74.46-2.62.66-4.66,1.09-9.44,1.81-14.23,1.56-6.21-.32-12.43-2.29-17.89-5.37-5.9,4.13-11.16,6.69-16.06,7.87.22.66.43,1.34.62,2.02,2.26,1.52,3.63,2.89,4.63,4.54,1.47,2.46,2.11,5.56,1.5,8.29-.4,1.83-1.34,3.51-2.24,5.16-.86,1.56-1.67,3.11-2.48,4.66-1.99-1.62-3.98-3.23-5.47-5.34-1.74-2.42-2.82-5.49-2.43-8.35.28-2.14,1.36-4.17,2.64-5.97.69-.97,1.43-1.89,2.24-2.73-.07-.34-.18-.66-.27-1-.07-.31-.13-.6-.22-.97-2.62.49-5.15.56-7.61.27-4.54-.55-8.88-2.36-13.48-5.03-.27-.13-.55-.29-.81-.46-.16.18-.31.34-.46.52-.55.6-1.09,1.19-1.65,1.8-.16,2.57-.6,4.34-1.47,5.93-1.3,2.39-3.52,4.38-6.03,5.21-1.68.55-3.49.58-5.28.63-1.68.04-3.33.13-4.97.21.35-2.39.72-4.78,1.71-7,1.15-2.57,3.13-4.91,5.65-5.99,1.87-.78,4.04-.87,6.12-.69,1.12.09,2.23.27,3.3.52.24-.22.46-.46.68-.69.32-.29.65-.58,1.22-1.14-1.16-.71-2.34-1.47-3.55-2.27,2.01.9,4.01,1.8,6.02,2.61,4.39,1.81,8.77,3.23,13.06,3.42-.18-.52-.35-.87-.5-1.24-.1-.27-.19-.55-.29-.83-.97-.19-1.95-.46-2.89-.8-1.77-.63-3.52-1.52-4.75-2.88-1.67-1.81-2.4-4.47-2.39-7,.03-2.18.62-4.28,1.22-6.37,1.31.68,2.64,1.36,3.98,2.03,1.45.71,2.92,1.42,4.1,2.49,1.74,1.61,2.8,4.07,2.98,6.5.1,1.64-.18,3.26-1,5.43.22.69.44,1.39.66,2.08.01.07.04.13.06.21.04.13.09.27.13.4.47-.01.94-.03,1.4-.07,6.44-.56,12.67-4.36,18.89-8.15-4.42-3.07-8.29-6.81-12.71-10.04-4.45-3.26-9.47-6-14.82-6.83-3.92-.6-8.01-.18-11.91.72-.99.24-1.96.5-2.92.78-1.67.47-3.29,1-4.93,1.53.6-.38,1.19-.78,1.8-1.16-.63-.38-1.11-.59-1.55-.83-.31-.16-.59-.34-.9-.5-1.03.58-2.09,1.08-3.2,1.5-2.06.78-4.31,1.34-6.44,1.08-2.88-.34-5.57-2.15-7.49-4.42-1.67-1.98-2.73-4.29-3.8-6.62,1.7-.4,3.39-.81,5.12-1.24,1.83-.47,3.69-.99,5.54-.87,2.74.15,5.49,1.67,7.43,3.7,1.3,1.36,2.26,2.95,3.11,4.6.55.28,1.09.56,1.73.91.52.29,1.08.65,2.37,1.5.28-.16.56-.32.84-.47.84-.47,1.7-.91,2.58-1.28,4.44-1.9,9.53-2.43,14.41-1.78-.28-.78-.49-1.19-.65-1.62-.12-.31-.24-.63-.35-.96-1.15-.22-2.29-.53-3.42-.93-2.08-.72-4.14-1.75-5.6-3.33-1.98-2.14-2.86-5.25-2.85-8.23,0-2.58.69-5.04,1.39-7.52,1.55.8,3.11,1.59,4.7,2.37,1.7.83,3.44,1.64,4.78,2.92,1.99,1.9,3.1,4.82,3.27,7.64.12,1.87-.19,3.7-.6,5.52.24.58.47,1.15.81,1.83.29.56.65,1.19,1.68,2.92,3.36.84,6.22,2.05,8.83,3.63.58.34,1.12.71,1.68,1.08,3.83,2.64,7.21,5.96,11.04,8.71,4.31,3.11,9.19,5.53,14.35,6.72.71.16,1.43.31,2.14.43.04-.16.07-.31.12-.44.09-.41.15-.77.22-1.09.07-.34.16-.66.25-1-.84-.84-1.61-1.73-2.32-2.68-1.31-1.77-2.45-3.77-2.77-5.91-.43-2.86.59-5.94,2.26-8.41,1.46-2.12,3.42-3.79,5.37-5.44.84,1.53,1.68,3.07,2.57,4.6.94,1.64,1.93,3.29,2.37,5.12.65,2.71.09,5.82-1.34,8.32-.96,1.67-2.32,3.07-4.53,4.63-.22.77-.43,1.53-.66,2.29-.01.06-.04.13-.06.19v.04c5.47.66,11.15.09,16.47-1.42,2.42-.69,4.76-1.56,7.06-2.49-5.93-9.17-11.86-18.34-19.77-22.87-.38-.22-.78-.43-1.16-.63-2.77-1.4-5.77-2.3-8.82-3.01-.83.43-1.15.63-1.47.83-.28.15-.55.28-.83.44-.06,1.05-.19,2.09-.41,3.16-.4,1.95-1.06,3.91-2.29,5.41-1.67,2.01-4.34,3.19-6.99,3.54-2.3.29-4.59-.01-6.87-.32.52-1.49,1.03-2.96,1.53-4.48.53-1.62,1.05-3.27,2.02-4.63,1.46-2.01,3.94-3.35,6.41-3.83,1.67-.34,3.33-.28,5-.15.31-.13.62-.27,1.12-.56-2.86-.58-5.77-1.06-8.61-1.71-4.97-1.14-9.76-2.77-14.54-4.39,1.71.09,3.42.22,5.13.4-.21-.49-.4-.84-.58-1.19,0-.01-.01-.03-.01-.04-.13-.28-.24-.58-.37-.86-1.11-.15-2.2-.37-3.27-.66-2.01-.58-4.01-1.43-5.49-2.83-1.98-1.89-3.01-4.78-3.17-7.58-.1-1.89.18-3.75.55-5.59.1-.53.21-1.05.32-1.58,1.52.66,3.02,1.31,4.57,1.96,1.65.68,3.35,1.34,4.69,2.46.99.84,1.78,1.93,2.39,3.16.59,1.21.97,2.54,1.14,3.86.22,1.75.03,3.49-.25,5.23.15.41.29.83.71,1.64.31.6.75,1.43,1.22,2.29,2.45.28,4.94.59,7.45.88,4.6.52,9.35.91,13.83,1.81-.01-.53-.06-.94-.07-1.34-.03-.34-.03-.69-.03-1.03-1.03-.59-2.01-1.24-2.95-1.98-1.74-1.36-3.36-2.99-4.23-4.97-1.18-2.64-1.03-5.88-.06-8.7.83-2.43,2.27-4.56,3.72-6.67,1.22,1.25,2.43,2.51,3.7,3.75,1.34,1.33,2.73,2.67,3.6,4.31,1.27,2.43,1.39,5.56.65,8.29-.5,1.81-1.37,3.45-2.34,5.03-.01.27-.03.53-.03.88,0,.28.03.6.06,1.02.04.52.12,1.18.19,1.89,2.09.5,4.11,1.15,6.02,1.99,10.28,4.5,17.43,14.7,24.57,24.92,1.34-.56,2.67-1.09,4.01-1.56,6.02-2.18,12.09-3.38,18.74-3.97,1.73-.15,3.49-.27,5.26-.32-1.53-1.5-3.02-3.05-4.34-4.72-1.5-1.9-2.79-3.97-3.98-6.1-.43-.03-.46-.03-.49-.03-.25-.01-.49,0-.74.01-.49.03-.96.09-1.45.15-.86.81-1.75,1.55-2.74,2.24-1.8,1.27-3.83,2.34-5.97,2.61-2.88.35-5.94-.74-8.35-2.48-2.09-1.52-3.7-3.51-5.31-5.5,1.56-.81,3.11-1.61,4.67-2.45,1.67-.9,3.33-1.84,5.16-2.2,2.7-.5,5.72.29,8.11,1.8,1.59,1,2.9,2.32,4.5,4.14.21.01.4.01.6.01s.41-.01.62-.04c.13,0,.27-.01.4-.03-.84-1.56-1.67-3.14-2.52-4.69-2.17-3.89-4.56-7.65-7.3-11.12-.5.15-.62.18-.72.21-.01,0-.03.01-.04.01-.9.22-1.83.41-2.74.62-1.89,2.37-3.51,3.77-5.43,4.73-2.86,1.43-6.34,1.86-9.3.97-2.01-.6-3.77-1.8-5.53-2.93-1.65-1.08-3.3-2.11-4.94-3.14,1.95-2.06,3.91-4.13,6.37-5.62,2.82-1.7,6.31-2.64,9.45-1.98,2.34.49,4.51,1.87,6.4,3.44,1.02.86,1.95,1.75,2.83,2.73.37-.07.75-.15,1.12-.21.43-.07.86-.12,1.4-.22-1-1.18-2.05-2.33-3.14-3.42-2.17-2.18-4.56-4.19-7.06-5.97-2.88-2.05-5.91-3.83-8.97-5.62,4.44,1.53,8.88,3.08,12.81,5.32.01-.13.04-.28.06-.41.06-.32.15-.63.21-.96-.81-.77-1.58-1.58-2.29-2.46-1.31-1.64-2.45-3.51-2.83-5.53-.5-2.7.35-5.66,1.86-8.05,1.31-2.06,3.11-3.72,4.91-5.35.84,1.43,1.7,2.85,2.6,4.29.94,1.52,1.93,3.05,2.42,4.76.71,2.57.28,5.53-.99,7.95-.86,1.61-2.08,2.99-4.14,4.56-.1.43-.19.86-.4,1.64-.03.12-.06.24-.09.37.22.13.44.28.65.43,5.41,3.63,9.6,9,13.64,14.45l1.73,2.34c4.22,5.72,8.48,11.3,13.83,15.66,3.02,2.45,6.39,4.53,9.76,6.59,1.52.25,3.02.55,4.51.88,4.06.9,7.99,2.11,11.89,3.35,6.61,2.11,13.08,4.34,19.82,6.02,5.26,1.33,10.69,2.33,16.09,1.99.55-.03,1.11-.07,1.67-.15-1.74-1.19-3.47-2.4-5.26-3.49-3.48-2.11-7.2-3.82-10.68-5.93-5-3.04-9.51-6.89-13.63-11.06-.75-.75-1.47-1.52-2.2-2.29-.16.06-.32.12-.49.18-.07.03-.15.04-.22.07-.83.28-1.67.53-2.51.78-1.68,2.52-3.19,4.06-5.01,5.16-2.57,1.56-5.75,2.29-8.64,1.84-.19-.03-.38-.06-.56-.1-2.03-.43-3.91-1.47-5.75-2.48-1.74-.94-3.47-1.83-5.19-2.73,1.78-2.21,3.57-4.42,5.9-6.1,2.67-1.93,6.08-3.16,9.26-2.76,2.37.29,4.64,1.5,6.65,2.9,1.09.77,2.09,1.59,3.05,2.48.37-.09.74-.21,1.11-.29s.74-.16,1.18-.28c-2.65-2.9-5.18-5.93-7.7-8.98-3.57-4.29-7.14-8.63-11.27-12.33-.16.09-.31.18-.47.27-.4.24-.81.46-1.21.69-.99,2.54-2.01,4.17-3.39,5.52-2.08,1.99-4.95,3.29-7.74,3.32-1.89.01-3.72-.55-5.54-1.06-1.71-.47-3.39-.93-5.09-1.37,1.14-2.3,2.27-4.59,3.98-6.52,1.98-2.23,4.72-3.97,7.61-4.23,2.14-.21,4.36.4,6.4,1.25,1.11.46,2.15.97,3.17,1.58.31-.15.6-.32.91-.47.03-.03.07-.04.12-.06-3.27-2.77-6.86-5.19-10.44-7.62,2.65.74,5.18,1.61,7.55,2.79,2.55,1.27,4.95,2.88,7.23,4.72,2.29,1.86,4.45,3.94,6.58,6.1.04-.19.09-.37.13-.55.09-.29.19-.59.28-.88-.69-.8-1.34-1.64-1.93-2.54-1.08-1.65-1.99-3.52-2.17-5.46-.24-2.6.84-5.31,2.48-7.43,1.43-1.83,3.27-3.21,5.12-4.6.66,1.42,1.34,2.85,2.06,4.28.75,1.52,1.55,3.05,1.84,4.72.44,2.48-.24,5.23-1.65,7.4-.94,1.45-2.24,2.62-4.32,3.92-.19.53-.35,1.08-.56,1.61-.06.19-.13.38-.21.58,0,.01-.01.03-.01.04,1.45,1.5,2.88,3.04,4.31,4.56,5.15,5.44,10.37,10.62,16.26,14.95,1.25.91,2.52,1.78,3.82,2.61.13-.44.22-.81.32-1.18.1-.35.22-.72.34-1.09-.87-.97-1.67-2.02-2.39-3.13-1.34-2.05-2.46-4.35-2.67-6.74-.29-3.2,1.03-6.56,3.05-9.17,1.75-2.27,4.03-3.97,6.31-5.68.83,1.75,1.67,3.51,2.55,5.26.93,1.89,1.92,3.77,2.27,5.84.55,3.05-.28,6.46-2.03,9.13-1.16,1.78-2.76,3.24-5.32,4.84-.28.84-.56,1.65-.87,2.48-.03.07-.06.16-.09.24-.01.03-.03.06-.04.1,1.37.83,2.77,1.61,4.19,2.33,3.86,1.95,7.9,3.48,11.8,5.43,1.96.97,3.89,2.06,5.59,3.42,1.21.97,2.29,2.06,3.32,2.9.06-.01.13-.04.19-.07,4.31-1.62,8.3-3.89,12.33-6.12-.06-5.4-.1-10.79-1.03-16.09-.69-3.94-1.87-7.82-3.54-11.47-2.01-4.36-4.7-8.41-8.01-11.86-2.96-3.08-6.4-5.69-10.09-7.83-6.22-3.61-13.17-5.88-20.23-7.28-5.71-1.12-11.49-1.67-17.28-2.02-.13-.01-.25-.01-.38-.03-7.7-.49-15.42-.65-23.02-1.95-7.99-1.37-15.84-3.98-23.08-7.65-1.9-.97-3.77-2.01-5.81-3.26-1.21-.75-2.49-1.58-3.89-2.52-5.46,2.9-10.91,5.81-16.77,8.05-1.93.74-3.92,1.4-5.93,1.96-.04.21-.07.38-.1.55-.04.27-.07.49-.12.71-.06.29-.12.58-.18.86.72.69,1.4,1.43,2.03,2.23,1.16,1.46,2.18,3.14,2.52,4.94.46,2.42-.32,5.06-1.67,7.2-1.18,1.86-2.79,3.32-4.41,4.78-.75-1.27-1.52-2.55-2.32-3.83-.84-1.36-1.73-2.73-2.15-4.28-.63-2.29-.25-4.94.9-7.09.77-1.45,1.87-2.68,3.72-4.07.12-.55.25-1.08.38-1.61-6.08,1.55-12.39,2.12-18.55.94-2.68-.52-5.32-1.36-7.93-2.21-.16.53-.25.88-.34,1.24-.09.27-.18.55-.27.83.66.75,1.27,1.55,1.81,2.4,1.03,1.56,1.89,3.33,2.05,5.16.22,2.45-.8,5.01-2.34,7-1.36,1.74-3.1,3.04-4.84,4.34-.63-1.34-1.27-2.68-1.95-4.03-.71-1.45-1.46-2.89-1.74-4.47-.41-2.33.24-4.94,1.58-6.99.9-1.36,2.11-2.48,4.07-3.69.24-.69.47-1.39.74-2.06.01-.03.01-.06.04-.12-3.94-1.27-7.8-2.45-11.61-2.42-.29,0-.59.01-.88.03-4.44.25-8.82,2.09-13.15,4.44-.21.65-.34,1.12-.44,1.46-.16.58-.22.8-.28,1.03-.09.28-.18.55-.27.83.66.75,1.27,1.55,1.81,2.4,1.03,1.56,1.87,3.33,2.05,5.16.07.78.01,1.56-.15,2.34-.34,1.68-1.16,3.3-2.21,4.66-1.34,1.74-3.08,3.04-4.82,4.35-.63-1.34-1.28-2.68-1.95-4.04-.71-1.45-1.46-2.89-1.74-4.47-.41-2.33.22-4.94,1.56-6.97.9-1.37,2.12-2.49,4.08-3.7.24-.68.47-1.37.72-2.03,0-.01.01-.01.01-.03.01-.04.03-.07.04-.12-1.64.93-3.27,1.92-4.91,2.9,3.82-4.9,9.84-8.49,15.94-9.82-.18-.19-.34-.35-.5-.53-.25-.28-.5-.58-.75-.86-1.28.22-2.58.34-3.91.38-2.45.06-5-.19-7.15-1.25-2.88-1.43-5.04-4.32-6.21-7.4-1.02-2.68-1.27-5.52-1.53-8.35,1.93.21,3.85.41,5.82.59,2.09.19,4.22.34,6.12,1.14,2.82,1.18,5.13,3.79,6.41,6.64.87,1.9,1.27,3.92,1.56,5.97.46.5.93,1,1.46,1.61.34.38.69.81,1.31,1.62.31-.03.6-.06.9-.06.31-.04.62-.06.93-.07,7.24-.21,13.91,3.17,20.81,4.14,2.54.35,5.1.38,7.67.15,0-.25-.01-.49-.03-.72-.01-.38,0-.77,0-1.15-1.12-.68-2.18-1.43-3.21-2.27-1.89-1.55-3.66-3.42-4.59-5.62-1.24-2.98-.97-6.58.18-9.67.99-2.68,2.64-5,4.31-7.31,1.31,1.42,2.64,2.85,4.01,4.26,1.46,1.52,2.96,3.02,3.88,4.88,1.36,2.74,1.39,6.21.5,9.22-.6,2.01-1.62,3.79-2.74,5.53.01.28.03.56.03.86.01.41.03.84.03,1.31v.4c5.21-.78,10.38-2.57,15.22-4.82,4.34-2.01,8.42-4.39,12.43-6.87-.16-.12-.32-.25-.49-.37-4.51-3.48-8.74-7.28-13.48-10.45-5.85-3.94-12.46-6.93-19.35-8.69-4.07-1.03-8.24-1.65-11.84-1.78-2.62-.1-4.94.04-7.45.25,0,.07-.01.13-.01.19-.01.37,0,.69-.01.99-.01.35-.04.69-.06,1.03.97.68,1.89,1.4,2.76,2.23,1.61,1.5,3.08,3.27,3.79,5.31.96,2.74.52,5.96-.69,8.67-1.05,2.36-2.67,4.35-4.28,6.33-1.11-1.36-2.23-2.7-3.38-4.06-1.21-1.45-2.48-2.89-3.24-4.6-1.14-2.55-1.15-5.71-.19-8.42.63-1.81,1.71-3.44,3.61-5.38.06-.72.12-1.45.21-2.17-1.11.09-2.27.18-3.51.27-4.88.31-11.1.44-16.69-.58-2.48-.46-4.84-1.14-7.03-2.03-.07.06-.13.12-.19.18-.59.56-1.09,1.19-1.59,1.84-.04,1.3-.18,2.6-.41,3.91-.44,2.4-1.21,4.85-2.68,6.74-.12.16-.25.31-.38.46-2.02,2.27-5.09,3.63-8.14,4.1-2.83.44-5.66.13-8.49-.19.6-1.84,1.19-3.7,1.77-5.59.62-2.01,1.21-4.06,2.37-5.75,1.74-2.52,4.75-4.25,7.8-4.93,2.05-.46,4.1-.44,6.16-.31.59-.35,1.16-.71,1.86-1.21.03-.03.06-.04.07-.06-2.3-1.12-4.41-2.49-6.28-4.13-1.37-1.18-2.62-2.51-3.6-4.03,1.11.65,2.2,1.31,3.3,1.95-.19-.99-.41-1.52-.63-2.03-1.77-1.09-3.45-2.27-4.85-3.83-2.09-2.32-3.54-5.47-3.49-8.54.03-2.05.74-4.07,1.4-6.06.63-1.87,1.21-3.72,1.8-5.57,2.49,1.37,4.98,2.76,7.03,4.76,2.36,2.3,4.14,5.44,4.29,8.66.12,2.39-.68,4.84-1.73,7.05-.56,1.19-1.21,2.33-1.92,3.42.01.62.04,1.22.12,1.83.03.19.06.4.1.59.07.37.18.72.27,1.08,1.05.55,2.09,1.08,3.17,1.56,4.53,2.02,9.51,3.3,14.41,3.49-.01-.32-.03-.66-.07-.99-.04-.31-.12-.62-.19-.91-2.4-1.25-4.13-2.39-5.57-3.89-2.17-2.26-3.73-5.37-3.77-8.42-.03-2.06.62-4.1,1.22-6.1.56-1.9,1.09-3.76,1.61-5.63,2.54,1.3,5.07,2.6,7.18,4.53,2.43,2.24,4.32,5.32,4.57,8.52.09,1.06-.01,2.14-.22,3.2-.28,1.33-.74,2.65-1.28,3.89-.53,1.22-1.14,2.39-1.81,3.49.03.4.06.78.1,1.18s.1.78.18,1.16c6.21-.13,12.18-2.05,19.1-2.32,5.59-.22,11.78.62,17.16,1.86,9.69,2.23,16.75,5.71,23.79,10.47,6.86,4.66,13.7,10.54,21.57,14.63.52.27,1.03.53,1.56.78-2.18-8.02-4.93-15.54-9.89-21.01-8.1-8.89-22.16-12.3-33.81-18.46-2.6-1.37-5.09-2.89-7.48-4.51-.37.19-.44.24-.52.27-.74.32-1.42.78-2.09,1.22-.47,1.21-1.02,2.4-1.67,3.55-1.19,2.14-2.73,4.2-4.73,5.5-2.7,1.75-6.3,2.14-9.54,1.55-2.83-.5-5.4-1.73-7.96-2.95,1.16-1.55,2.33-3.1,3.49-4.7,1.22-1.7,2.45-3.45,4.1-4.67,2.46-1.81,5.88-2.46,8.98-2.12,2.08.24,4.03.93,5.94,1.71.66-.13,1.33-.28,2.14-.53.03-.01.06-.03.1-.03-6.43-4.56-12.24-9.82-18.05-15.09,3.95,2.29,7.31,4.42,10.32,6.4,0-.12,0-.25-.01-.37,0-.27-.01-.53-.03-.8-.01-.22-.04-.44-.07-.66-2.23-1.55-3.83-2.83-5.13-4.47-1.95-2.45-3.2-5.69-2.95-8.74.16-2.05.99-4.03,1.78-5.96.74-1.83,1.45-3.64,2.14-5.46,1.8,1.15,3.6,2.3,5.21,3.7.53.46,1.05.96,1.52,1.49,2.21,2.45,3.79,5.69,3.73,8.92-.03,2.39-.97,4.78-2.15,6.92-.65,1.16-1.36,2.26-2.14,3.3-.01.56-.03,1.12,0,1.68.01.25.03.5.07.74,0,.09.01.18.07,1.05,6.75,4.51,11.77,8.14,18.02,10.94,1.67.75,3.41,1.43,5.21,2.09-.01-.47-.01-.5-.01-.53-.04-.77-.13-1.37-.24-1.99-1.27-1.34-2.46-2.77-3.32-4.44-1.28-2.51-1.83-5.59-1.08-8.24.5-1.78,1.59-3.36,2.62-4.94.99-1.49,1.92-2.96,2.86-4.44,1.84,1.77,3.69,3.54,5.01,5.77,1.52,2.55,2.34,5.69,1.73,8.52-.46,2.11-1.7,4.04-3.13,5.72-.77.91-1.59,1.77-2.46,2.55-.16.71-.32,1.42-.37,2.15,0,.04,0,.1-.04.43,6.02,2.12,12.49,4.08,18.17,7.02,3.17,1.64,6.1,3.58,8.55,6.03,6.97,6.95,10.22,17.96,13.61,28.58,5.22,1.83,10.71,3.01,16.21,3.63,6.61.74,13.24.66,20.01.78-2.3-1.56-4.51-3.23-6.59-5.04-8.29-7.26-14.32-16.91-19.97-27.04-3.33-5.97-6.53-12.09-11.5-16.1-.47-.37-.94-.72-1.45-1.06-.63.22-.68.22-.71.24-.47.16-.9.38-1.34.6-.15.09-.29.16-.44.24-.46.96-.97,1.87-1.58,2.77-1.12,1.64-2.48,3.2-4.19,4.11-2.3,1.24-5.22,1.3-7.82.6-.56-.15-1.11-.32-1.64-.55-1.61-.63-3.1-1.5-4.59-2.37,1.05-1.18,2.09-2.34,3.14-3.55,1.11-1.3,2.21-2.62,3.63-3.49,2.11-1.31,4.91-1.61,7.39-1.11,1.67.32,3.19,1,5.13,2.03.16-.06.34-.12.5-.19.29-.12.58-.25.86-.4-5.34-3.17-11.83-5.01-17.08-8.57-7.17-4.87-12.03-12.92-14.52-21.44-.72-2.48-1.25-5-2.29-7.17-.5-1.02-1.11-1.96-1.8-2.85-.74.53-1.14.8-1.4.96-.15.1-.27.16-.38.22-.47,1.02-1.02,1.98-1.64,2.92-1.14,1.74-2.55,3.41-4.34,4.38-2.39,1.33-5.46,1.43-8.18.74-2.36-.59-4.47-1.78-6.58-2.98,1.09-1.24,2.17-2.49,3.24-3.77,1.15-1.37,2.29-2.77,3.77-3.72,2.2-1.39,5.13-1.74,7.74-1.25,1.75.32,3.35,1.02,5.4,2.06.18-.06.35-.13.53-.21.31-.12.59-.28.88-.43-1.9-2.02-4.32-3.69-6.96-5.19-2.11-1.22-4.38-2.33-6.64-3.45,1.68.37,3.36.83,4.97,1.37-.18-1.3-.44-1.89-.87-2.08-1.95-.88-3.76-1.84-5.34-3.23-2.36-2.05-4.19-5.01-4.51-8.05-.21-2.05.25-4.13.68-6.19.4-1.93.75-3.83,1.11-5.75,2.64,1.08,5.28,2.14,7.55,3.88,2.62,2.01,4.78,4.91,5.31,8.08.4,2.36-.09,4.88-.86,7.21-.41,1.25-.91,2.46-1.5,3.63.09,1.05.55,2.45.78,3.39,4.48,1.89,8.32,4.64,10.56,8.54,1.24,2.15,1.99,4.64,2.89,7.09.13.38.28.75.41,1.12.24-.31.49-.62.69-.94.12-.19.22-.38.34-.58-.81-2.58-1.3-4.59-1.33-6.67-.04-3.14.94-6.47,2.99-8.73,1.39-1.53,3.24-2.58,5.06-3.63,1.71-1,3.36-2.01,5.03-3.01.96,2.67,1.93,5.35,2.15,8.21.25,3.29-.49,6.83-2.49,9.33-1.49,1.87-3.69,3.19-5.94,4.16-1.21.53-2.45.97-3.7,1.31-.27.31-.52.63-.75.96-.25.32-.47.65-.68,1-.03.07-.07.13-.47.75,3.11,7.2,7.61,13.73,13.89,17.64,6.13,3.82,13.99,5.13,19.95,9.02.04-.19.09-.37.13-.56s.07-.38.1-.58c.04-.22.06-.44.09-.66-1.78-2.03-3.04-3.67-3.91-5.57-1.3-2.85-1.73-6.3-.77-9.2.65-1.95,1.93-3.66,3.17-5.35,1.16-1.59,2.27-3.19,3.39-4.78,1.96,2.06,3.92,4.13,5.26,6.65,1.56,2.92,2.32,6.44,1.49,9.56-.6,2.32-2.09,4.41-3.76,6.21-.9.97-1.84,1.86-2.86,2.68-.1.38-.22.78-.31,1.18s-.16.8-.21,1.19c0,.04-.01.09-.03.53,4.62,3.7,7.95,9.16,11.37,14.47,2.9,4.48,5.88,8.88,9.11,12.96.22-.32.46-.63.66-.96.1-.19.22-.38.32-.59-.87-2.57-1.4-4.56-1.46-6.64-.12-3.13.81-6.49,2.82-8.79,1.34-1.56,3.19-2.64,4.98-3.73,1.68-1.03,3.32-2.08,4.95-3.11,1.02,2.65,2.03,5.31,2.32,8.17.32,3.29-.32,6.83-2.29,9.39-1.46,1.9-3.63,3.24-5.85,4.28-1.21.56-2.43,1.02-3.69,1.39-.37.47-.74.96-1.06,1.47-.1.16-.22.34-.31.52-.01.03-.03.06-.1.21,3.41,4.13,7.11,7.92,11.28,11.12,7.52,5.77,16.59,9.63,25.23,13.08.41.16.81.32,1.22.49,8.67,1.99,16.94,5.13,23.84,9.81.99.66,1.95,1.37,2.88,2.09,5.16,4.07,9.36,9.14,12.43,14.89,1.03,1.95,1.93,3.98,2.77,6.06,1.4,3.48,2.61,7.11,3.95,10.78,1.7,4.67,3.57,9.42,5.35,14.05,3.26-1.06,6.59-1.87,9.95-2.48,8.26-1.46,16.66-1.62,25.05-1.87.81-.03,1.62-.06,2.45-.07-3.24-3.33-6.27-6.81-8.8-10.66-1.83-2.77-3.41-5.72-4.87-8.76-.97-.01-1.96-.04-2.71,0h-.1c-.84.06-1.4.16-1.93.28-1.58,1.34-3.21,2.58-5.13,3.44-2.85,1.28-6.31,1.7-9.2.71-1.95-.66-3.64-1.96-5.34-3.2-1.59-1.16-3.17-2.3-4.75-3.42,2.06-1.95,4.14-3.89,6.68-5.23,2.92-1.53,6.46-2.27,9.57-1.42,2.3.62,4.38,2.12,6.16,3.79.97.91,1.86,1.87,2.68,2.89.38-.01.77-.03,1.15-.06.59-.04,1.18-.13,1.75-.21-3.36-7.23-6.43-14.72-11.32-21.01-2.37-3.07-5.19-5.85-8.74-8.61-2.43.27-3.2.4-3.86.53-.43.07-.8.16-1.14.27-.35.09-.68.19-1.02.28-1.3,1.61-2.67,3.14-4.39,4.34-2.57,1.78-5.87,2.85-8.91,2.42-2.03-.28-3.95-1.24-5.84-2.15-1.02-.49-2.03-.96-3.04-1.42-.77-.35-1.52-.69-2.27-1.05,1.67-2.3,3.35-4.6,5.59-6.39,2.58-2.06,5.91-3.45,9.13-3.2,2.39.19,4.7,1.27,6.77,2.58,1.14.71,2.18,1.49,3.17,2.33.58-.09,1.14-.19,1.61-.28.58-.1,1-.21,1.42-.29-6.3-4.39-14.72-8.85-26.54-14.38-1.45.94-1.98,1.21-2.43,1.47-.34.18-.63.35-.9.53-.28.18-.53.35-.78.52-.68,1.74-1.43,3.44-2.57,4.94-1.71,2.24-4.25,4.06-6.96,4.54-1.83.31-3.73.03-5.6-.22-1.75-.24-3.49-.44-5.22-.65.8-2.43,1.59-4.87,3.01-7.02,1.64-2.48,4.11-4.59,6.93-5.26,2.09-.5,4.38-.22,6.52.34,1.16.29,2.27.66,3.36,1.12.46-.25.91-.49,1.3-.69.46-.25.81-.46,1.14-.65-2.33-1.08-4.79-2.18-7.37-3.35,9.33,2.24,17.55,4.69,24.67,7.43-.16-.38-.31-.81-.53-1.34-.19-.44-.43-.97-.65-1.5-1.25-.37-2.48-.81-3.69-1.37-2.23-1-4.41-2.36-5.87-4.25-1.98-2.55-2.64-6.1-2.33-9.39.27-2.85,1.27-5.52,2.29-8.17,1.64,1.03,3.29,2.06,4.97,3.08,1.8,1.09,3.64,2.17,5,3.72,2.01,2.3,2.95,5.65,2.86,8.77-.07,2.09-.59,4.08-1.22,6.06.19.65.4,1.3.72,2.09.16.43.37.91.77,2.05.15.38.29.83.47,1.37,10.17,4.22,17.98,9.14,23.53,15.09,1.98,2.09,3.66,4.32,5.16,6.62.46-.9.62-1.34.83-1.77.15-.34.32-.68.5-1.02-.71-1.11-1.33-2.26-1.87-3.47-1-2.24-1.75-4.69-1.61-7.08.21-3.21,2.03-6.31,4.44-8.58,2.08-1.98,4.6-3.3,7.11-4.64.56,1.86,1.11,3.73,1.71,5.6.62,2.01,1.31,4.03,1.3,6.09,0,3.05-1.5,6.19-3.64,8.48-1.42,1.53-3.13,2.68-4.91,3.75-.28.62-.55,1.25-.83,2.05-.22.62-.44,1.33-1.33,3.35,4.73,8.11,7.68,16.81,12.67,23.79.32.46.65.88.99,1.33.28-.25.56-.5.88-.78.29-.25.62-.52.94-.77-.12-1.31-.13-2.61-.04-3.94.15-2.45.62-4.97,1.86-7,1.68-2.76,4.75-4.64,7.93-5.54,2.76-.77,5.6-.78,8.45-.8-.38,1.9-.75,3.8-1.11,5.75-.37,2.06-.71,4.17-1.67,6-1.43,2.7-4.22,4.76-7.17,5.81-1.98.69-4.03.91-6.09,1.03-.52.44-1.03.9-1.53,1.34-.29.27-.6.53-.9.81,4.17,4.81,9.26,8.83,14.36,12.21.87.04,1.73.1,2.58.18,7.79.65,15.47,2.52,22.94,4.9,4.42,1.4,8.77,2.99,13.08,4.66-4.04-12.64-8.58-25.01-15-36.39-5.5-9.76-12.37-18.8-19.79-27.44-6.5-7.58-13.42-14.85-19.82-22.4-19.49-5.88-21.62-6.34-23.71-6.83-11.8-2.68-22.44-5.9-32.18-10.71-2.24-1.11-4.44-2.3-6.59-3.6-3.7-2.23-7.27-4.75-10.84-7.28-.28.24-.4.35-.53.47-.28.25-.58.49-.86.75.21,1.28.32,2.58.35,3.91.04,2.45-.22,5-1.31,7.14-1.45,2.88-4.35,5.01-7.45,6.15-2.7.99-5.53,1.24-8.36,1.47.22-1.93.44-3.86.63-5.82.21-2.08.37-4.22,1.16-6.15,1.15-2.88,3.66-5.32,6.56-6.67,1.95-.88,4.07-1.28,7.09-1.28.41-.32.83-.66,1.24-1-5.5-3.89-11.03-7.76-17.12-10.59-6.19-2.89-12.93-4.72-19.38-6.95-.9.96-1.39,1.59-1.84,2.17-.04,1.3-.18,2.6-.43,3.91-.43,2.4-1.19,4.85-2.68,6.74-1.99,2.52-5.26,4.04-8.52,4.56-2.83.44-5.66.12-8.49-.21.6-1.86,1.21-3.7,1.78-5.59.6-2.01,1.19-4.06,2.37-5.75,1.73-2.52,4.75-4.25,7.8-4.93,2.05-.44,4.11-.43,6.16-.29.44-.27.88-.55,1.4-.9.16-.12.34-.25.53-.38-4.78-1.74-9.32-3.77-13.29-6.75-5.81-4.35-10.34-10.69-14.05-17.22-.5-.88-1-1.78-1.47-2.67-.5.34-.99.71-1.46,1.09-.35,1.25-.8,2.48-1.34,3.7-1,2.23-2.33,4.42-4.22,5.9-2.54,1.99-6.08,2.68-9.36,2.4-2.86-.25-5.53-1.24-8.2-2.23,1.03-1.65,2.05-3.3,3.05-5,1.08-1.8,2.14-3.66,3.67-5.03,2.29-2.02,5.63-2.98,8.76-2.92,2.09.04,4.08.56,6.67,1.39.19-.1.38-.22.58-.34.32-.19.63-.43.94-.66-4.75-8.97-9.14-18.26-20.36-27.86-.96.56-1.39.88-1.75,1.18-.04.03-.1.07-.15.12-.28,1.14-.66,2.26-1.12,3.36-.84,2.03-1.99,4.03-3.66,5.4-2.24,1.84-5.41,2.55-8.38,2.37-2.58-.16-5-.99-7.42-1.83.88-1.5,1.75-3.01,2.62-4.56.93-1.65,1.84-3.35,3.2-4.6,2.01-1.89,5-2.82,7.82-2.83,1.89,0,3.69.41,6.02,1.11.18-.1.35-.21.52-.31.21-.15.41-.29.88-.6-2.14-1.73-4.5-3.45-7.14-5.19,8.04,2.88,13.93,6.59,18.57,10.75.06-.16.1-.34.15-.52.06-.18.09-.37.13-.56.03-.22.07-.44.1-.65-1.71-2.11-2.9-3.77-3.72-5.71-1.19-2.89-1.5-6.36-.44-9.23.72-1.93,2.06-3.58,3.35-5.23,1.22-1.56,2.39-3.11,3.55-4.66,1.89,2.12,3.77,4.26,5.04,6.83,1.46,2.96,2.09,6.52,1.15,9.6-.69,2.3-2.24,4.34-3.97,6.08-.94.94-1.92,1.8-2.96,2.58-.12.38-.24.78-.34,1.18-.1.38-.19.78-.25,1.18-.01.03-.01.07-.15.68,7.02,6.92,10.99,14.91,15.59,22.31.16.27.34.53.5.8.18-.28.38-.6.56-.94.1-.19.21-.4.29-.6-1.03-2.49-1.68-4.45-1.89-6.53-.31-3.11.4-6.52,2.24-8.95,1.25-1.64,3.01-2.85,4.73-4.04,1.61-1.15,3.19-2.29,4.75-3.44,1.19,2.6,2.37,5.18,2.85,8.01.53,3.26.1,6.84-1.68,9.51-1.33,2.01-3.41,3.49-5.57,4.66-1.16.63-2.34,1.16-3.58,1.62-.32.5-.68,1-.96,1.53-.1.18-.19.37-.28.55-.01.03-.03.06-.27.49,3.7,5.62,7.87,10.71,12.98,14.16,3.66,2.48,7.8,4.1,12.14,5.41.04-.18.07-.37.1-.56s.06-.38.07-.59c.03-.22.04-.44.04-.66-1.89-1.93-3.23-3.49-4.19-5.35-1.45-2.77-2.08-6.19-1.27-9.14.55-1.99,1.74-3.76,2.88-5.51,1.08-1.67,2.09-3.3,3.13-4.95,2.06,1.95,4.14,3.91,5.62,6.36,1.73,2.83,2.67,6.31,2.01,9.47-.49,2.34-1.86,4.5-3.42,6.39-.84,1.03-1.75,1.96-2.71,2.85-.1.47-.21.96-.28,1.45-.04.28-.09.55-.1.83,6.89,1.93,14.16,3.26,20.7,5.97.96.38,1.9.81,2.85,1.27-.04-.53-.09-1.06-.12-1.59-2.08-2.2-3.24-4.03-3.91-6.05-1.02-3.04-.94-6.55.37-9.35.87-1.9,2.32-3.48,3.69-5.06,1.31-1.49,2.57-2.96,3.82-4.45,1.75,2.24,3.52,4.47,4.64,7.11,1.28,3.05,1.71,6.64.6,9.66-.83,2.24-2.49,4.19-4.31,5.82-.99.88-2.02,1.7-3.11,2.42.01.38.04.77.04,1.14v.38c0,.18,0,.43-.01.83,6.5,3.41,12.43,7.93,18.67,11.87.13-.52.27-1.03.4-1.55-1.25-2.74-1.75-4.85-1.74-6.99.03-3.19,1.22-6.49,3.36-8.71,1.45-1.52,3.32-2.55,5.15-3.6,1.71-.97,3.38-1.98,5.04-2.96.94,2.68,1.89,5.37,2.09,8.21.24,3.3-.52,6.83-2.55,9.33-1.5,1.86-3.7,3.16-5.96,4.13-1.22.52-2.46.94-3.72,1.28-.12.37-.21.74-.32,1.09-.03.1-.07.21-.12.32-.03.12-.09.24-.13.37,1.42.88,2.88,1.71,4.35,2.49,13.26,7,28.87,9.44,44.47,11.87-1.98-7.03-3.95-14.07-6.16-21.07-2.71-8.6-5.77-17.15-10.53-24.79-4.48-7.23-10.48-13.63-17.37-18.71-.07.13-.15.25-.21.35-.44.75-.62,1.08-.8,1.42.16,1.3.24,2.6.21,3.92-.04,2.46-.41,4.98-1.56,7.09-1.56,2.82-4.54,4.84-7.68,5.87-2.73.88-5.57,1.02-8.42,1.15.29-1.92.59-3.83.86-5.8.28-2.08.53-4.19,1.42-6.06,1.31-2.76,4.01-4.95,6.92-6.1,1.95-.78,3.98-1.09,6.68-1.33.13-.18.27-.35.4-.53.25-.35.47-.71.68-1.08-.97-.68-1.96-1.34-2.96-1.96-7.14-4.45-14.98-7.52-22.92-10.37-.15.29-.27.55-.38.75-.32.65-.5,1.02-.66,1.37.24,1.3.37,2.58.41,3.91.1,2.46-.13,5.01-1.18,7.17-1.4,2.89-4.26,5.09-7.34,6.28-2.67,1.03-5.5,1.33-8.33,1.61.19-1.93.37-3.86.53-5.82.18-2.09.31-4.23,1.09-6.13,1.15-2.83,3.73-5.16,6.56-6.47,1.9-.88,3.92-1.31,6.59-1.7.13-.18.25-.37.37-.55.21-.34.38-.69.56-1.05-.47-.16-.93-.32-1.4-.49-6.67-2.36-13.33-4.66-19.6-7.93-.09.1-.16.21-.24.29-.49.62-.72.94-.94,1.27.01,1.11-.04,2.23-.18,3.33-.27,2.08-.81,4.19-1.98,5.85-1.58,2.23-4.28,3.67-7.02,4.25-2.39.52-4.81.37-7.23.22.43-1.59.86-3.19,1.25-4.82.43-1.73.84-3.49,1.75-5,1.36-2.21,3.83-3.82,6.4-4.53,1.71-.47,3.47-.56,5.77-.52.13-.13.27-.27.38-.41.16-.19.31-.38.58-.72-5.69-3.16-11.02-7.21-15.14-12.18-.68-.83-1.34-1.68-1.98-2.55-.09.09-.18.18-.28.25-.43.43-.86.83-1.3,1.22-.38,2.68-1.02,4.53-2.06,6.13-1.56,2.42-4.07,4.34-6.78,4.98-1.83.46-3.75.32-5.63.24-1.77-.09-3.52-.13-5.26-.19.58-2.49,1.16-4.98,2.39-7.26,1.43-2.61,3.7-4.93,6.46-5.84,2.03-.68,4.34-.59,6.52-.24,1.18.19,2.32.47,3.44.83.27-.22.52-.46.78-.66.13-.1.27-.22.41-.34s.29-.24.46-.37c-.74-1.08-1.43-2.18-2.09-3.3-1.28-2.11-2.49-4.29-3.69-6.46l3.58,3.94c.15-.37.28-.74.38-1.11.06-.21.1-.43.15-.65-1.53-2.23-2.6-3.98-3.24-5.97-.97-2.98-1.02-6.46.27-9.23.86-1.87,2.33-3.42,3.75-4.97,1.33-1.46,2.61-2.9,3.91-4.36,1.71,2.27,3.42,4.54,4.48,7.21,1.22,3.07,1.58,6.65.41,9.66-.87,2.23-2.58,4.13-4.44,5.74-1,.87-2.05,1.65-3.14,2.34-.31.77-.6,1.52-.78,2.3,0,.03-.01.07-.19.69,2.29,2.43,4.63,4.82,7.11,7.11,2.01,1.84,4.1,3.63,6.3,5.25.16-.35.29-.72.4-1.09.06-.22.1-.43.15-.65-1.53-2.23-2.6-3.98-3.24-5.97-.97-2.98-1.02-6.46.27-9.23.86-1.87,2.33-3.42,3.75-4.97,1.34-1.46,2.62-2.9,3.91-4.36,1.71,2.27,3.44,4.54,4.5,7.2,1.22,3.07,1.58,6.67.4,9.66-.86,2.24-2.58,4.14-4.42,5.75-1,.87-2.05,1.64-3.16,2.34-.1.25-.19.5-.29.77-.16.46-.34,1-.55,1.77,1.99,1.36,4.08,2.6,6.28,3.63,4.36,2.06,9.14,3.35,13.92,4.48.03-.22.04-.46.06-.68s.01-.44.01-.66c-1.99-1.84-3.41-3.35-4.45-5.15-1.59-2.7-2.37-6.09-1.71-9.07.44-2.01,1.55-3.83,2.6-5.65.99-1.71,1.93-3.41,2.89-5.1,2.15,1.84,4.32,3.7,5.93,6.08,1.84,2.73,2.96,6.16,2.46,9.35-.38,2.36-1.64,4.59-3.11,6.55-.8,1.06-1.65,2.05-2.58,2.98-.07.5-.16,1-.21,1.56-.01.07-.03.16-.03.24,2.62.62,5.23,1.22,7.76,1.92,4.38,1.19,8.51,2.67,12.53,4.41.13-.37.27-.74.37-1.11.06-.22.12-.43.16-.65-1.55-2.23-2.61-3.98-3.26-5.97-.97-2.98-1.02-6.46.27-9.23.87-1.87,2.33-3.42,3.75-4.97,1.34-1.46,2.62-2.9,3.91-4.36,1.73,2.27,3.44,4.54,4.5,7.2.09.22.18.44.25.68,1.02,2.9,1.24,6.21.16,8.98-.87,2.24-2.58,4.14-4.44,5.75-1,.86-2.05,1.64-3.16,2.34-.21.55-.43,1.08-.8,2.09,1.96.9,3.91,1.86,5.82,2.88,6.92,3.67,13.68,8.17,19.51,13.32,1.75,1.55,3.42,3.16,6.78,7.08.91-4.81.68-8.67.65-12.58-.04-6.52.47-13.12.41-19.88-.01-.49-.01-.96-.03-1.45-.09-.01-.18-.03-.27-.03-.81-.1-1.34-.21-1.87-.28-2.34,1.37-4.17,2.02-6.09,2.21-2.86.27-5.93-.5-8.13-2.21-1.49-1.15-2.58-2.73-3.69-4.26-1.03-1.45-2.08-2.85-3.13-4.25,2.32-1.09,4.63-2.2,7.17-2.64,2.93-.52,6.16-.16,8.58,1.42,1.81,1.18,3.17,3.04,4.25,4.95.59,1.05,1.08,2.11,1.49,3.21.34.07.68.12,1.02.19.1.01.19.04.6.12-.18-3.79-.66-7.56-1.99-11.06-1.36-3.58-3.58-6.86-6.15-9.76-.58.13-1.02.24-1.4.32-.24.04-.44.1-.66.15-1.42,1.83-2.65,2.9-4.11,3.66-2.17,1.12-4.84,1.46-7.11.81-1.53-.44-2.9-1.34-4.25-2.21-1.28-.81-2.55-1.59-3.8-2.36,1.47-1.59,2.96-3.19,4.82-4.34,2.15-1.33,4.82-2.08,7.23-1.59,1.8.37,3.47,1.4,4.91,2.58.8.65,1.52,1.33,2.2,2.06.16-.03.34-.06.5-.09.12-.03.24-.06.35-.07.1-.01.21-.03.31-.04-1.71-1.83-3.54-3.54-5.34-5.29-2.34-2.29-4.66-4.64-6.53-7.37-.12-.18-.22-.34-.34-.5-.43-.03-.8-.06-1.12-.09-.62-.03-1.11-.06-1.59-.1-2.21,1.56-3.98,2.37-5.87,2.71-2.83.52-5.94.01-8.29-1.5-1.58-1.02-2.8-2.51-4.04-3.94-1.15-1.34-2.32-2.65-3.48-3.95,2.21-1.3,4.42-2.58,6.93-3.24,2.86-.77,6.12-.69,8.67.68,1.9,1.02,3.42,2.76,4.64,4.59.66.99,1.25,2.01,1.77,3.07.34.03.68.06,1.02.1.12.01.24.03.37.04-2.42-4.26-3.91-9.22-4.56-14.08-.27-2.06-.4-4.13-.44-6.18-.65-.15-1.3-.31-1.95-.47-2.46,1.16-4.34,1.65-6.27,1.67-2.88.03-5.85-1-7.9-2.9-1.37-1.27-2.33-2.93-3.29-4.56-.91-1.53-1.84-3.02-2.76-4.5,2.4-.9,4.81-1.78,7.37-2.01,2.96-.27,6.15.37,8.43,2.15,1.7,1.33,2.89,3.29,3.79,5.31.49,1.09.88,2.2,1.21,3.32.34.1.66.18.99.28.12.03.24.07.35.12,0-2.06.06-4.11.13-6.15.43,2.49.84,4.98,1.34,7.45.74,3.72,1.62,7.36,2.86,10.76.1-.07.19-.16.29-.24.27-.21.55-.4.83-.6-.1-1.16-.12-2.34-.06-3.54.13-2.2.56-4.47,1.67-6.31,1.5-2.48,4.26-4.19,7.12-5,2.49-.71,5.04-.72,7.61-.74-.34,1.71-.66,3.42-.97,5.18-.34,1.86-.63,3.76-1.47,5.44-1.24,2.49-3.66,4.53-6.36,5.51-1.8.68-3.73.88-6.44.66-.37.24-.72.5-1.16.8-.15.1-.29.21-.47.32,1.22,3.02,2.77,5.82,4.79,8.35,1.84,2.29,4.08,4.34,6.41,6.31.18-.07.25-.12.34-.15.31-.15.62-.27.94-.4.16-1.16.41-2.32.77-3.47.62-2.11,1.55-4.22,3.07-5.75,2.03-2.08,5.1-3.11,8.08-3.24,2.57-.1,5.07.46,7.56,1.03-.72,1.59-1.43,3.19-2.14,4.82-.75,1.73-1.47,3.51-2.68,4.95-1.77,2.14-4.6,3.55-7.45,3.91-1.92.24-3.83,0-6.43-.84-.18.07-.34.13-.71.28,3.01,2.54,6.06,5.04,8.43,7.9,1.21,1.46,2.26,3.01,3.14,4.67.19-.04.28-.06.37-.09.24-.04.46-.07.69-.12.1-.01.22-.04.32-.06.43-1.11.91-2.17,1.5-3.21,1.06-1.92,2.43-3.77,4.25-4.95,2.43-1.58,5.66-1.92,8.58-1.4,2.55.46,4.85,1.55,7.17,2.65-1.05,1.4-2.09,2.8-3.13,4.23-1.11,1.53-2.21,3.11-3.7,4.26-2.2,1.71-5.26,2.48-8.13,2.2-1.92-.19-3.75-.84-6.09-2.21-.13.01-.27.04-.5.09-.15.04-.32.09-.58.16,5.06,10.94,4.28,26.32,2.88,49.33,2.21-9.16,4.1-17.75,7.58-25.81,1.95-4.47,4.36-8.76,7.11-12.67,2.43-3.44,5.12-6.56,7.99-9.72,3.16-3.47,6.55-6.96,9.41-10.85.72-.99,1.4-2.01,2.06-3.02-.53-.24-.99-.41-1.45-.6-2.6.81-4.53,1.05-6.43.78-2.86-.37-5.66-1.81-7.42-3.97-1.19-1.46-1.9-3.24-2.64-4.98-.69-1.64-1.39-3.24-2.09-4.84,2.49-.55,5-1.11,7.58-.96,2.96.15,6.03,1.21,8.05,3.3,1.49,1.55,2.4,3.67,3.01,5.78.34,1.15.58,2.3.74,3.47.31.15.63.27.94.41.12.06.22.1.58.19,2.65-4.42,4.76-9.2,6.5-14.02.32-.9.63-1.81.93-2.73-.86-.5-1.37-.81-1.9-1.14-2.7.38-4.63.29-6.47-.27-2.76-.83-5.29-2.7-6.68-5.12-.94-1.64-1.36-3.51-1.8-5.34-.41-1.74-.86-3.42-1.3-5.12,2.57-.13,5.12-.28,7.64.28,2.9.63,5.77,2.17,7.42,4.56,1.22,1.77,1.78,4.01,2.03,6.19.15,1.18.21,2.36.18,3.23,0,.09.06.19.19.32.21.21.6.47,1.19.84,1.7-5.41,2.9-10.81,3.63-16.03.34-2.54.58-5.04.77-7.93-.69-.27-1.39-.53-2.06-.81-2.6.81-4.53,1.03-6.43.78-2.86-.38-5.66-1.81-7.43-3.98-1.18-1.46-1.9-3.24-2.62-4.98-.69-1.64-1.4-3.23-2.09-4.84,2.49-.55,5-1.09,7.58-.96,2.96.16,6.03,1.22,8.04,3.3,1.5,1.56,2.42,3.67,3.02,5.8.34,1.15.58,2.3.74,3.47.31.13.63.27.94.41.09.03.19.07.43.15.06-1.21.13-2.49.19-3.86.31,1.81.56,3.61.74,5.43.46,4.45.47,8.91.06,13.32.04-.01.09-.03.15-.04.04-.01.07-.03.12-.03.28-.09.58-.18.87-.25.29-1.14.68-2.26,1.15-3.35.88-2.02,2.05-4.01,3.73-5.37,2.26-1.81,5.43-2.49,8.39-2.27,2.58.19,5,1.05,7.4,1.9-.9,1.5-1.8,2.99-2.68,4.54-.94,1.62-1.87,3.32-3.23,4.6-1.95,1.86-4.76,2.92-7.55,3.01-.1.01-.22.01-.32.01-1.92.01-3.8-.44-6.28-1.58-.32.09-.65.16-1.05.25-.25.06-.53.12-.86.18-.99,8.3-3.48,16.49-6.77,24.27-.55,1.3-1.12,2.6-1.73,3.86.72-.01,1.08-.03,1.34-.04.56-1.03,1.19-2.01,1.92-2.96,1.34-1.75,2.95-3.41,4.9-4.32,2.62-1.22,5.87-1.12,8.7-.19,2.46.8,4.6,2.2,6.74,3.61-1.24,1.24-2.46,2.48-3.7,3.76-1.3,1.36-2.61,2.77-4.25,3.7-2.42,1.39-5.54,1.73-8.35,1.06-1.87-.46-3.6-1.36-5.72-3.05-.41.01-.84.03-1.64-.01-.21,0-.43-.01-.68-.03-1.55,3.13-3.29,6.12-5.34,8.91-3.33,4.56-7.45,8.52-11.07,12.89.15.03.29.07.41.1.44.1.72.19.96.25.86-.83,1.75-1.58,2.73-2.27,1.78-1.3,3.8-2.39,5.94-2.68,2.88-.4,5.94.66,8.38,2.36,2.11,1.49,3.73,3.47,5.37,5.44-1.55.83-3.08,1.65-4.63,2.51-1.65.91-3.32,1.89-5.16,2.3-2.71.6-5.81,0-8.29-1.46-1.65-.97-3.04-2.34-4.57-4.59-.31-.09-.63-.19-1.11-.35-.28-.09-.6-.22-1.03-.38-.32.41-.65.84-.97,1.25-3.38,4.53-6.03,9.6-8.01,14.89-4.23,11.41-5.26,23.8-4.35,36.19,1.11,15.1,5.09,30.21,13.14,42.39,7.51,11.37,18.55,20.16,29.6,28.96-5.4-14.54-10.54-29.17-13.02-44.71-2.51-15.62-2.3-32.15,2.89-46.73,3.72-10.43,10-19.86,17.49-28.56,4.38-5.07,9.17-9.91,11.84-15.57,3.17-6.68,3.38-14.52,3.38-22.68-.35-.1-.65-.19-.91-.27-.43-.15-.78-.25-1.12-.37-2.55.94-4.45,1.28-6.37,1.14-2.88-.22-5.75-1.5-7.64-3.57-1.27-1.39-2.08-3.14-2.9-4.84-.77-1.59-1.56-3.16-2.36-4.7,1.55-.43,3.1-.86,4.66-1.12.94-.16,1.89-.27,2.86-.27,2.98,0,6.09.9,8.21,2.86,1.59,1.47,2.61,3.54,3.33,5.62.4,1.14.71,2.26.93,3.42.32.12.63.24.94.35h.01c.12.04.24.09.34.15v-3.44c.01-8.48.37-17.08,4.34-23.65,1.33-2.21,3.07-4.19,5.06-5.99-.44-.69-.71-1.21-.97-1.73-2.48-1.09-4.08-2.2-5.35-3.64-1.9-2.15-3.07-5.09-2.98-7.87.06-1.87.69-3.69,1.3-5.49.55-1.68,1.08-3.36,1.59-5.03,2.24,1.24,4.48,2.46,6.34,4.26,2.14,2.08,3.75,4.9,3.89,7.79.1,2.15-.59,4.35-1.53,6.34-.5,1.09-1.08,2.11-1.73,3.1.15.31.31.62.44.93.06.12.1.22.15.34,1.95-1.61,4.08-3.08,6.31-4.44-2.15,1.99-4.32,4-6.25,6.1-1.92,2.11-3.6,4.32-4.82,6.74-.8,1.56-1.39,3.23-1.83,4.95h.37c.34.01.68.03,1.03.04.65-.97,1.39-1.89,2.2-2.77,1.49-1.62,3.24-3.11,5.26-3.83,2.73-.97,5.96-.58,8.69.6,2.37,1.03,4.36,2.62,6.37,4.23-1.34,1.12-2.68,2.24-4.04,3.41-1.43,1.22-2.86,2.51-4.57,3.29-2.54,1.15-5.69,1.19-8.41.27-1.83-.62-3.45-1.68-5.43-3.55-.47-.04-.96-.07-1.61-.13-.07,0-.15-.01-.22-.01-1.06,5.37-.78,11.3-.31,17.18.28,3.47.62,6.9.81,10.28.13-.01.25-.03.37-.04.34-.04.68-.06,1.02-.1.52-1.06,1.11-2.08,1.77-3.07,1.22-1.83,2.74-3.57,4.64-4.59,2.55-1.37,5.81-1.45,8.67-.68,2.51.66,4.72,1.95,6.93,3.24-1.16,1.3-2.33,2.61-3.48,3.95-1.24,1.43-2.46,2.92-4.04,3.94-2.34,1.52-5.46,2.02-8.29,1.5-1.89-.34-3.66-1.14-5.87-2.71-.4.03-.8.06-1.25.09-.12.01-.25.01-.38.03.24,5.62-.03,11.03-1.86,16-.13.37-.28.74-.43,1.09-2.29,5.43-6.33,10.35-9.98,15.47-6.68,9.33-12.08,19.29-14.86,30.01-3.89,15-2.65,31.51,1.28,46.8,1.4,5.43,3.14,10.69,5.13,15.84.65-4.07,1.39-8.13,2.39-12.15,1.95-7.84,4.94-15.53,8.95-22.56-.1-.1-.21-.21-.31-.31-.38-.38-.77-.78-1.14-1.18-2.7-.32-4.54-.91-6.18-1.93-2.45-1.52-4.41-3.98-5.13-6.68-.47-1.81-.4-3.73-.34-5.62.04-1.78.06-3.52.07-5.28,2.51.53,5.01,1.06,7.3,2.26,2.64,1.36,5,3.6,5.97,6.33.74,2.02.69,4.34.38,6.52-.18,1.18-.43,2.33-.77,3.45.24.27.47.5.69.77.09.09.16.19.25.28,2.43-4.08,5.25-7.95,8.71-11.49,1.46-1.5,3.04-2.95,4.72-4.11-.01-.18-.04-.28-.06-.37-.01-.07-.03-.13-.03-.21-.13-.72-.25-1.47-.35-2.2-1.92-1.73-3.02-3.19-3.73-4.87-1.06-2.49-1.24-5.47-.32-7.95.62-1.67,1.73-3.1,2.8-4.53,1-1.34,1.96-2.68,2.92-4.03,1.65,1.77,3.29,3.54,4.42,5.71,1.3,2.49,1.9,5.5,1.16,8.14-.55,1.96-1.83,3.72-3.26,5.23-.78.81-1.59,1.56-2.46,2.26.03.32.09.63.12.96s.04.65.09,1.03c.5-.28,1-.55,1.53-.77,1.12-.49,2.29-.81,3.58-1-1.12.56-2.26,1.14-3.29,1.83-2.55,1.7-4.54,4.17-6.43,6.68-.35.49-.72.97-1.08,1.47.34.1.62.16.9.25.27.09.55.19.83.28.77-.65,1.56-1.25,2.42-1.78,1.59-1,3.38-1.83,5.19-1.96,2.46-.19,5.01.87,6.97,2.46,1.73,1.37,2.99,3.13,4.28,4.9-1.36.6-2.71,1.22-4.07,1.87-1.45.69-2.92,1.42-4.5,1.67-2.33.38-4.93-.29-6.96-1.67-1.34-.93-2.45-2.15-3.63-4.14-.63-.24-1.27-.44-1.89-.71-.06-.01-.1-.03-.16-.06-.04-.01-.1-.03-.15-.06-2.43,3.42-4.63,6.93-6.46,10.65-2.12,4.31-3.76,8.89-4.95,13.6.52.07,1.05.15,1.56.19.35.03.71.04,1.05.06.74-.91,1.53-1.78,2.4-2.6,1.62-1.5,3.48-2.86,5.56-3.42,2.8-.77,5.99-.1,8.61,1.28,2.29,1.21,4.14,2.96,6.02,4.7-1.43,1.02-2.85,2.03-4.28,3.08-1.52,1.12-3.05,2.29-4.81,2.89-2.61.88-5.71.5-8.29-.65-1.71-.77-3.19-1.89-4.62-3.08-.5-.12-1.02-.22-1.81-.27h-.01c-.5-.01-1.12-.01-1.93.03-.56,2.51-1.02,5.06-1.37,7.59-.8,5.77-1.05,11.56-.94,23.34,2.08,4.29,4.28,8.54,6.56,12.73,4,7.37,8.24,14.63,11.83,22.22-.32-3.14-.31-6.1.49-8.83.97-3.3,3.1-6.25,5.37-9.17-.43-.31-.86-.6-1.27-.91-.06-.04-.12-.09-.18-.13-2.73.15-4.64-.1-6.43-.81-2.68-1.06-5.06-3.14-6.24-5.66-.8-1.71-1.05-3.61-1.34-5.47-.27-1.75-.56-3.48-.86-5.21,2.57.07,5.12.16,7.59.91,2.83.87,5.56,2.65,6.99,5.16,1.08,1.87,1.45,4.16,1.52,6.36.04,1.19,0,2.37-.12,3.54.27.21.55.41.81.63.15.12.29.24.46.38,1.15-1.47,2.3-2.96,3.32-4.48,1.98-2.95,3.48-6.09,4.63-11-.15-.1-.22-.16-.31-.22-.32-.24-.66-.47-.99-.72s-.65-.49-.97-.74c-2.57.09-4.38-.19-6.05-.9-2.51-1.05-4.7-3.07-5.77-5.47-.72-1.62-.91-3.44-1.15-5.21-.22-1.67-.46-3.29-.71-4.93,2.42.13,4.84.25,7.15,1.02,2.65.88,5.19,2.62,6.5,5.03.97,1.78,1.27,3.95,1.3,6.03.01,1.12-.04,2.23-.19,3.33.25.21.5.4.75.6.25.22.49.44.75.66.72-3.48,1.28-7.83,1.74-13.48.34,2.42.66,4.82.81,7.26.24,3.91-.03,7.87-.97,11.68-.19.77-.4,1.52-.63,2.27.35,0,.63-.01.93-.01.29-.01.58,0,.87,0,.53-.84,1.12-1.65,1.77-2.43,1.21-1.43,2.65-2.76,4.36-3.44,2.29-.91,5.03-.68,7.39.24,2.05.78,3.79,2.08,5.54,3.38-1.11.99-2.2,1.99-3.3,3.02-1.18,1.09-2.34,2.23-3.77,2.95-2.12,1.06-4.79,1.21-7.14.5-1.58-.46-2.99-1.31-4.72-2.85-.68-.01-1.34-.04-2.02-.09-.06,0-.12-.01-.18-.01-.04,0-.1,0-.16-.01-.86,2.45-1.96,4.81-3.14,7.09-1.19,2.3-2.49,4.53-3.77,6.75-.06.12-.12.22-.18.32.27.04.55.07.81.09.35.03.69.04,1.05.06.72-.91,1.52-1.78,2.4-2.6,1.61-1.5,3.48-2.86,5.56-3.42,2.79-.77,5.97-.1,8.6,1.28,2.29,1.21,4.16,2.96,6.02,4.7-1.42,1.02-2.85,2.03-4.28,3.08-1.52,1.12-3.05,2.29-4.81,2.89-2.6.87-5.71.5-8.27-.65-1.73-.77-3.2-1.89-4.62-3.1-.52-.1-1.02-.21-1.81-.25h-.03c-.5-.01-1.11-.01-1.75,0-.41.81-.8,1.65-1.09,2.52-1.15,3.27-1.16,6.96-1.39,10.54-.21,3.11-.58,6.16-.41,9.22.22,4.48,1.59,8.98,3.36,13.21,1.89,4.53,4.25,8.76,6.12,13.21s3.26,9.14,4.64,13.82c1.08-3.76,2.26-7.48,3.61-11.15,4.38-11.78,10.59-22.96,17.84-33.27,3.38-4.79,6.97-9.39,15-18.9-5.34-7.39-10.48-14.02-14.97-21.07h-.01c-.75-1.18-1.49-2.37-2.2-3.58-5.65-9.57-9.98-20.23-12-31.25-1.27-6.93-1.62-13.99-1.42-21.03.15-4.98.58-9.95,1.24-14.88.66-22.38,1.99-27.32,1.03-31.79-.19-.93-.5-1.84-.87-2.74-.06.03-.12.06-.18.07-.5.24-.94.4-1.39.56-1.22,2.12-2.37,3.45-3.79,4.44-2.12,1.49-4.85,2.24-7.34,1.89-1.67-.25-3.23-1-4.78-1.71-1.45-.66-2.89-1.3-4.34-1.92,1.33-1.89,2.65-3.77,4.45-5.25,2.05-1.71,4.73-2.88,7.34-2.71,1.93.12,3.82.96,5.51,1.99.93.56,1.78,1.18,2.6,1.86.29-.1.59-.21.88-.31.07-.03.15-.04.28-.1.04-.01.09-.04.15-.07-1.93-3.89-5.04-7.55-7.12-11.53-.77-1.46-1.39-2.98-1.9-4.53-.16.03-.31.06-.44.07-.41.07-.78.12-1.14.16-1.45,1.49-2.65,2.34-4.04,2.86-2.05.8-4.47.86-6.43.04-1.34-.55-2.46-1.49-3.6-2.39-1.06-.86-2.11-1.68-3.17-2.49,1.47-1.28,2.96-2.57,4.75-3.41,2.05-.99,4.5-1.39,6.62-.72,1.56.5,2.95,1.59,4.13,2.79.65.66,1.22,1.34,1.77,2.06.25-.01.52-.04.78-.06.04,0,.09-.01.15-.01.06-.01.13-.03.25-.06-1.19-3.94-1.78-8.05-2.37-12.18,1.5,6.05,3.01,12.08,6.43,17.3.66,1,1.4,1.98,2.17,2.93.19-.25.25-.35.29-.46.15-.27.31-.53.46-.8-.53-.93-.97-1.89-1.37-2.89-.72-1.84-1.22-3.86-1-5.78.31-2.6,1.92-5.03,3.95-6.77,1.77-1.5,3.86-2.48,5.96-3.45.37,1.53.74,3.05,1.14,4.6.43,1.65.88,3.32.84,5.01-.09,2.51-1.31,5.07-3.14,6.9-1.22,1.21-2.73,2.11-5.03,2.95-.34.56-.66,1.12-1.18,1.81,2.82,3.41,5.8,6.68,7.03,10.51.84,2.57.88,5.37.65,10.06,3.45-12.08,7.73-23.96,9.29-36.3,1.19-9.38.83-19.02-.52-28.47-.4.03-.8.06-1.21.07-.22.01-.46.03-.68.04-1.8,1.67-3.27,2.58-4.93,3.11-2.46.8-5.31.69-7.56-.38-1.53-.72-2.8-1.9-4.07-3.04-1.18-1.08-2.37-2.11-3.55-3.13,1.81-1.42,3.64-2.82,5.8-3.7,2.48-1.02,5.38-1.33,7.82-.41,1.81.69,3.38,2.06,4.69,3.55.71.81,1.34,1.65,1.93,2.54.12,0,.28,0,.47-.01.32-.01.72-.06,1.08-.13-.13-.83-.27-1.65-.41-2.48-1-5.81-2.33-11.53-3.79-17.21-.78-3.07-1.61-6.13-2.43-9.19,1.09,2.43,2.14,4.9,3.13,7.36.29-.4.47-.6.62-.8-.37-1-.66-2.01-.88-3.07-.41-1.93-.58-4.01-.04-5.87.71-2.51,2.7-4.66,4.98-6.03,1.99-1.21,4.22-1.83,6.43-2.45.12,1.56.24,3.13.38,4.72.16,1.7.34,3.42.01,5.07-.49,2.46-2.09,4.81-4.2,6.31-1.42,1-3.04,1.64-5.44,2.09-.43.5-.84,1-1.28,1.5,3.47,8.91,6.16,17.99,7.68,27.06.12-.03.21-.06.28-.09.06-.03.1-.06.15-.07.28-.12.58-.24.86-.37.15-1.05.35-2.08.66-3.11.55-1.9,1.37-3.82,2.71-5.21,1.81-1.89,4.57-2.83,7.24-2.98,1.28-.06,2.54.06,3.79.25,1.02.16,2.03.38,3.04.6-.63,1.45-1.27,2.89-1.89,4.36-.66,1.56-1.3,3.17-2.37,4.48-1.59,1.95-4.11,3.23-6.68,3.58-1.71.22-3.45.01-5.78-.71-.41.16-.81.32-1.22.47-.18.07-.35.13-.55.21.77,4.93,1.16,9.85,1.15,14.72-.01,3.38-.24,6.72-.59,10.06.35.06.49.06.6.06.21-.01.41,0,.63,0h.4c.6-1.02,1.28-1.98,2.05-2.89,1.4-1.71,3.08-3.29,5.07-4.11,2.67-1.11,5.91-.87,8.7.18.29.12.6.24.88.37,2.05.9,3.86,2.21,5.68,3.52-1.28,1.18-2.57,2.37-3.85,3.6-1.36,1.31-2.73,2.67-4.39,3.52-2.48,1.28-5.62,1.49-8.39.71-1.84-.53-3.52-1.5-5.59-3.29-.18,0-.35-.01-.56-.01-.35,0-.8.01-1.43.04-.83,6.68-2.21,13.33-3.72,20.03.35.1.47.1.59.12.13.01.25.03.38.04.21.03.43.06.65.07.72-.93,1.5-1.8,2.37-2.62,1.58-1.52,3.44-2.9,5.51-3.49,2.79-.8,5.97-.18,8.61,1.18,2.3,1.18,4.19,2.9,6.08,4.63-1.4,1.03-2.82,2.06-4.23,3.14-1.52,1.14-3.02,2.32-4.78,2.98-2.61.99-5.77.83-8.42-.28-1.78-.74-3.33-1.89-5.18-3.91-.25-.03-.49-.06-.8-.1-.31-.03-.66-.07-1.16-.1-.99,4.35-2.02,8.71-2.98,13.12-3.36,15.63-5.75,31.79-4,44.41,2.06-3.58,4.19-7.12,6.55-10.53,2.51-3.61,5.29-7.09,8.3-10.34-.43-.52-.65-.87-.83-1.18-.06-.1-.12-.19-.16-.29-2.12-.9-3.49-1.83-4.59-3.04-1.64-1.81-2.67-4.29-2.62-6.67.04-1.59.56-3.14,1.05-4.67.46-1.45.88-2.86,1.31-4.29,1.92,1.03,3.83,2.05,5.43,3.57,1.84,1.73,3.24,4.11,3.39,6.56.12,1.83-.46,3.7-1.24,5.41-.41.93-.88,1.8-1.43,2.65.03.06.06.1.09.16.1.21.21.41.29.62.04.09.09.19.15.29,2.33-2.45,4.81-4.76,7.42-6.9,2.17-1.78,4.41-3.45,6.78-4.95-.03-.13-.06-.27-.09-.38-.18-.78-.19-1.19-.19-1.62-1.52-1.75-2.34-3.19-2.79-4.75-.66-2.36-.49-5.03.62-7.14.74-1.42,1.89-2.58,2.99-3.73,1.05-1.09,2.06-2.18,3.07-3.26,1.27,1.75,2.54,3.52,3.3,5.59.87,2.37,1.08,5.12.13,7.39-.71,1.7-2.05,3.13-3.51,4.31-.78.65-1.59,1.22-2.45,1.74-.01.29,0,.59,0,.88-.01.09-.01.19-.01.31,1.73-1.06,3.52-2.02,5.4-2.9,2.73-1.27,5.65-2.36,8.48-2.61.34-1.08.6-1.49.86-1.92-.32-2.29-.25-3.94.22-5.5.71-2.34,2.3-4.5,4.35-5.68,1.39-.8,2.98-1.15,4.54-1.53,1.47-.35,2.9-.72,4.35-1.09.12,2.17.24,4.35-.24,6.49-.53,2.46-1.84,4.9-3.88,6.3-1.5,1.05-3.41,1.52-5.26,1.74-1,.12-2.01.16-3.01.15-.16.24-.31.49-.47.74-.06.07-.12.16-.18.25.99,0,1.99.12,3.04.35-1.25.13-2.51.27-3.72.55l-.35.09c-2.86.72-5.49,2.29-8.02,3.89-2.67,1.68-5.25,3.45-7.7,5.35.09.01.18.04.25.07.24.07.47.16.71.24.65-.55,1.34-1.05,2.08-1.49,1.36-.84,2.88-1.53,4.42-1.62,2.09-.15,4.25.78,5.91,2.14,1.45,1.18,2.51,2.68,3.58,4.2-1.15.5-2.32,1.02-3.47,1.56-1.24.58-2.49,1.18-3.83,1.39-1.99.29-4.19-.29-5.9-1.49-1.15-.8-2.06-1.84-3.07-3.54-.38-.15-.77-.28-1.53-.81-1.34,1.08-2.64,2.2-3.89,3.38-5.16,4.81-9.53,10.54-13.14,16.68.1.03.21.06.31.09.27.09.55.18.83.27.77-.63,1.56-1.22,2.43-1.77,1.58-.99,3.36-1.81,5.19-1.95,2.46-.18,5,.9,6.97,2.48,1.7,1.39,2.98,3.14,4.25,4.91-1.36.62-2.71,1.22-4.07,1.87-1.46.68-2.92,1.42-4.5,1.65-2.34.37-4.94-.31-6.96-1.7-1.34-.91-2.43-2.15-3.61-4.14-.4-.15-.78-.28-1.43-.68-.34.59-.66,1.16-.99,1.77-2.82,5.21-5.1,10.65-7.4,16.07,2.74,12.33,4.94,17.49,7.61,22.33,5.34,9.64,12.59,18.03,19.83,26.42,11.8-9.92,21.07-17.41,28.14-25.54,1.83-6.86,2.64-10.97,1.75-14.64-.84-3.47-3.2-6.55-5.57-9.73-.47.25-.83.43-1.15.58-.1.04-.21.1-.31.15-1,2.08-1.99,3.41-3.26,4.44-1.89,1.55-4.41,2.45-6.78,2.29-1.59-.1-3.11-.71-4.62-1.25-1.42-.53-2.82-1.03-4.22-1.52,1.12-1.87,2.23-3.73,3.82-5.25,1.81-1.75,4.26-3.04,6.72-3.07,1.83-.03,3.67.63,5.34,1.49.91.46,1.77.97,2.58,1.55.27-.1.53-.24.8-.34.1-.04.19-.07.29-.12-1-1.37-1.99-2.77-2.83-4.23-1.56-2.74-2.62-5.71-3.26-8.82-.53-.19-.88-.34-1.16-.43-.27-.1-.46-.18-.65-.24-1.95.71-3.42.96-4.88.83-2.2-.18-4.39-1.18-5.82-2.77-.96-1.06-1.56-2.4-2.18-3.7-.59-1.24-1.18-2.43-1.78-3.63,1.89-.5,3.79-1.02,5.77-1,2.27.01,4.64.71,6.27,2.23,1.19,1.14,1.98,2.73,2.51,4.32.29.87.53,1.74.69,2.62.18.06.34.12.52.19.07.03.15.06.22.09.09.03.18.06.25.1-.1-.6-.18-1.19-.24-1.8-.25-2.14-.29-4.32-.19-6.5.43,1.74.86,3.47,1.34,5.19.07-.07.13-.13.19-.21.19-.18.38-.35.58-.55-.19-.87-.32-1.77-.38-2.68-.12-1.68-.01-3.44.65-4.94.9-2.03,2.82-3.6,4.91-4.5,1.81-.77,3.76-1.03,5.71-1.3-.09,1.33-.18,2.67-.24,4.03-.07,1.45-.12,2.9-.59,4.26-.69,2.02-2.33,3.79-4.28,4.82-1.31.68-2.76,1.02-4.84,1.12-.29.27-.59.55-1.37,1.11,1.15,3.85,2.61,7.56,4.97,10.93,1.68,2.4,3.82,4.62,5.74,6.87.07-.09.13-.16.21-.24.19-.22.38-.44.58-.66-.28-.96-.5-1.93-.65-2.93-.28-1.84-.32-3.8.28-5.54.81-2.32,2.8-4.23,5.04-5.4,1.95-1.02,4.07-1.49,6.19-1.95.03,1.49.04,2.96.09,4.48.06,1.59.13,3.23-.27,4.78-.59,2.3-2.26,4.39-4.32,5.71-1.39.87-2.95,1.39-5.25,1.67-.29.32-.59.63-1.06,1.08,1.73,2.12,3.19,4.29,3.82,6.69.53,2.03.49,4.22.18,8.7,7.98-12.15,11.93-27.21,13.04-42.25.9-12.39-.12-24.77-4.36-36.19-1.96-5.29-4.63-10.37-8.01-14.89-.32-.41-.63-.84-.97-1.25-.41.16-.75.29-1.03.38-.47.16-.78.27-1.09.35-1.55,2.24-2.92,3.61-4.59,4.59-2.48,1.46-5.57,2.06-8.29,1.46-1.83-.41-3.49-1.39-5.15-2.3-1.55-.86-3.1-1.68-4.64-2.51,1.64-1.98,3.26-3.95,5.38-5.44,2.43-1.7,5.5-2.76,8.36-2.36,2.14.29,4.16,1.39,5.96,2.68.97.69,1.87,1.45,2.71,2.27.24-.06.53-.15.97-.25.12-.03.27-.07.41-.1-3.63-4.36-7.76-8.33-11.09-12.89-2.03-2.79-3.79-5.78-5.34-8.91-.25.01-.47.03-.68.03-.8.04-1.21.03-1.62.01-2.14,1.7-3.86,2.6-5.72,3.05-1.62.38-3.36.43-5.01.13-1.19-.22-2.33-.62-3.35-1.19-1.64-.93-2.93-2.34-4.25-3.7-1.22-1.28-2.46-2.52-3.69-3.76,2.14-1.42,4.28-2.82,6.72-3.61,2.83-.93,6.08-1.03,8.7.19,1.96.91,3.57,2.57,4.9,4.32.72.96,1.36,1.93,1.93,2.96.27.01.6.03,1.33.04-.59-1.27-1.16-2.57-1.73-3.86-3.29-7.79-5.78-15.97-6.75-24.27-.32-.06-.6-.12-.86-.18-.41-.09-.74-.16-1.06-.25-2.48,1.14-4.36,1.59-6.28,1.58-.72,0-1.46-.07-2.17-.21-2.14-.4-4.17-1.37-5.69-2.82-1.36-1.28-2.3-2.98-3.24-4.6-.88-1.55-1.78-3.04-2.68-4.54,2.42-.86,4.84-1.71,7.4-1.9,2.96-.22,6.15.46,8.41,2.27,1.68,1.36,2.85,3.35,3.72,5.37.47,1.09.86,2.21,1.16,3.35.28.07.59.16.87.25.04,0,.07.01.12.03.04.01.09.03.13.04-.41-4.41-.38-8.86.06-13.32.18-1.81.43-3.61.74-5.43.07,1.37.13,2.65.21,3.86.24-.07.32-.12.41-.15.31-.15.63-.28.94-.41.16-1.16.41-2.32.74-3.47.62-2.12,1.52-4.23,3.02-5.8,2.01-2.08,5.07-3.14,8.05-3.3,2.58-.13,5.07.41,7.58.96-.71,1.61-1.42,3.2-2.09,4.84-.74,1.74-1.45,3.52-2.64,4.98-1.77,2.17-4.57,3.6-7.42,3.98-1.92.25-3.83.03-6.43-.78-.69.28-1.37.55-2.06.81.18,2.89.41,5.4.77,7.93.71,5.22,1.93,10.62,3.61,16.03.94-.59,1.4-.91,1.39-1.16-.01-.87.03-2.05.18-3.23.27-2.18.83-4.42,2.05-6.19,1.65-2.39,4.51-3.92,7.42-4.56,2.51-.56,5.07-.41,7.62-.28-.43,1.7-.87,3.38-1.28,5.12-.44,1.83-.86,3.7-1.8,5.34-1.39,2.42-3.94,4.29-6.68,5.12-1.84.56-3.79.65-6.47.27-.47.28-.93.56-1.61.96-.1.06-.21.12-.31.18.29.91.62,1.83.94,2.73,1.73,4.82,3.83,9.6,6.5,14.02.34-.09.46-.13.56-.19.31-.15.63-.27.94-.41.16-1.16.41-2.32.74-3.47.6-2.11,1.52-4.23,3.02-5.78,2.01-2.09,5.07-3.16,8.05-3.3,2.57-.15,5.07.41,7.58.96-.71,1.59-1.42,3.2-2.11,4.84-.72,1.74-1.45,3.52-2.62,4.98-1.77,2.15-4.57,3.6-7.42,3.97-1.92.27-3.85.03-6.44-.78-.46.19-.91.37-1.45.6.66,1.02,1.36,2.03,2.08,3.02,2.86,3.89,6.25,7.39,9.41,10.85,2.88,3.16,5.54,6.28,7.98,9.72,2.74,3.91,5.18,8.2,7.11,12.67,3.48,8.05,5.38,16.65,7.59,25.81-1.42-23-2.2-38.38,2.86-49.33-.24-.07-.43-.12-.56-.16-.25-.04-.38-.07-.52-.09-2.34,1.37-4.17,2.02-6.09,2.21-2.86.28-5.91-.49-8.13-2.2-1.49-1.15-2.58-2.73-3.69-4.26-1.05-1.43-2.09-2.83-3.14-4.23,2.32-1.11,4.63-2.2,7.17-2.65,2.93-.52,6.16-.18,8.6,1.4,1.8,1.18,3.17,3.04,4.25,4.95.58,1.05,1.08,2.11,1.49,3.21.12.01.22.04.34.06.22.04.46.07.68.12.09.03.19.04.37.09.9-1.67,1.93-3.21,3.14-4.67,2.39-2.86,5.43-5.37,8.43-7.9-.35-.15-.53-.21-.71-.28-2.58.84-4.51,1.08-6.41.84-2.86-.35-5.68-1.77-7.46-3.91-1.19-1.45-1.93-3.23-2.67-4.95-.71-1.64-1.43-3.23-2.15-4.82,2.51-.58,5-1.14,7.58-1.03,2.96.13,6.05,1.16,8.08,3.24,1.5,1.53,2.43,3.64,3.07,5.75.34,1.15.59,2.3.77,3.47.31.13.63.25.94.4.07.03.15.07.34.15,2.32-1.98,4.56-4.03,6.41-6.31,2.02-2.52,3.55-5.32,4.78-8.35-.68-.46-1.15-.8-1.62-1.12-2.71.22-4.64.01-6.46-.66-2.7-.99-5.12-3.02-6.36-5.51-.84-1.68-1.14-3.58-1.46-5.44-.31-1.75-.65-3.47-.99-5.18,2.57.01,5.13.03,7.61.74,2.86.81,5.62,2.52,7.12,5,1.12,1.84,1.53,4.11,1.67,6.31.07,1.19.06,2.37-.04,3.54.27.21.56.4.83.6.09.07.19.16.28.24,1.25-3.42,2.14-7.05,2.88-10.78.49-2.45.91-4.94,1.34-7.43.06,2.03.12,4.08.12,6.15.12-.04.24-.09.35-.12.32-.1.66-.18.99-.28.32-1.12.72-2.23,1.21-3.32.9-2.02,2.11-3.98,3.8-5.31,2.29-1.78,5.47-2.42,8.42-2.15,2.58.22,4.98,1.11,7.37,2.01-.91,1.47-1.83,2.96-2.74,4.5-.97,1.62-1.92,3.29-3.3,4.56-2.05,1.9-5.03,2.93-7.9,2.9-1.92-.01-3.8-.5-6.25-1.67-.66.16-1.31.32-1.96.47-.04,2.05-.16,4.11-.44,6.18-.65,4.87-2.12,9.82-4.54,14.08.12-.01.24-.03.35-.04.34-.04.69-.07,1.03-.1.5-1.06,1.09-2.08,1.75-3.07,1.24-1.83,2.76-3.57,4.66-4.59,2.55-1.37,5.8-1.45,8.67-.68,2.49.66,4.7,1.95,6.92,3.24-1.16,1.3-2.32,2.61-3.48,3.95-1.22,1.43-2.46,2.92-4.04,3.94-2.33,1.52-5.44,2.02-8.27,1.5-1.9-.34-3.66-1.15-5.88-2.71-.49.04-.96.07-1.59.1-.32.03-.69.06-1.12.09-.1.16-.22.32-.32.5-1.87,2.73-4.19,5.09-6.53,7.37-1.81,1.75-3.63,3.47-5.34,5.29.1.01.21.03.29.04.12.01.22.04.34.07.18.03.35.06.53.09.68-.74,1.4-1.42,2.18-2.06,1.46-1.18,3.11-2.21,4.91-2.58,2.42-.49,5.07.27,7.23,1.59,1.87,1.15,3.35,2.74,4.84,4.34-1.27.77-2.54,1.55-3.8,2.36-1.36.87-2.71,1.77-4.26,2.21-2.27.65-4.93.31-7.11-.81-1.45-.75-2.7-1.83-4.11-3.66-.22-.04-.43-.1-.66-.15-.38-.09-.83-.19-1.4-.32-2.55,2.9-4.79,6.18-6.15,9.76-1.33,3.49-1.81,7.27-1.99,11.06.41-.07.52-.1.6-.12.34-.07.68-.12,1.02-.19.41-1.11.91-2.17,1.49-3.21,1.08-1.92,2.43-3.77,4.25-4.95,2.43-1.58,5.66-1.93,8.58-1.42,2.55.44,4.87,1.55,7.18,2.64-1.05,1.4-2.09,2.8-3.14,4.25-1.11,1.53-2.2,3.11-3.69,4.26-2.2,1.71-5.25,2.48-8.13,2.21-1.92-.19-3.75-.84-6.09-2.21-.52.07-1.03.16-1.78.27-.1.01-.22.03-.34.04-.01.49-.03.96-.03,1.45-.07,6.75.44,13.36.4,19.88-.03,3.91-.27,7.77.65,12.58,3.36-3.92,5.03-5.53,6.78-7.08,5.82-5.15,12.61-9.64,19.51-13.32,1.93-1.02,3.86-1.98,5.82-2.88-.09-.25-.18-.47-.25-.68-.22-.6-.38-1-.55-1.42-1.11-.71-2.15-1.49-3.16-2.34-1.84-1.61-3.55-3.51-4.42-5.75-1.09-2.77-.86-6.08.15-8.98.09-.24.16-.46.25-.68,1.06-2.65,2.79-4.93,4.5-7.2,1.28,1.46,2.58,2.9,3.91,4.36,1.42,1.55,2.89,3.1,3.75,4.97,1.28,2.77,1.24,6.25.27,9.23-.65,1.99-1.71,3.75-3.24,5.97.04.22.09.43.15.65.1.37.24.74.37,1.11,4.03-1.74,8.17-3.21,12.53-4.41,2.54-.69,5.13-1.3,7.76-1.92-.03-.32-.06-.63-.09-.93-.04-.29-.09-.58-.15-.87-.93-.93-1.78-1.92-2.58-2.98-1.46-1.96-2.73-4.19-3.1-6.55-.5-3.19.6-6.62,2.46-9.35,1.61-2.37,3.76-4.23,5.93-6.08.94,1.7,1.89,3.39,2.88,5.1,1.06,1.81,2.17,3.64,2.61,5.65.66,2.98-.13,6.37-1.71,9.07-1.06,1.8-2.48,3.3-4.45,5.15v.66c.01.22.04.46.07.68,4.78-1.14,9.54-2.42,13.92-4.48,2.18-1.03,4.28-2.27,6.28-3.63-.16-.62-.31-1.08-.46-1.47-.13-.4-.27-.74-.38-1.06-1.11-.71-2.15-1.47-3.16-2.34-1.86-1.61-3.57-3.51-4.44-5.75-1.16-2.99-.81-6.59.41-9.66,1.06-2.65,2.77-4.93,4.5-7.2,1.28,1.46,2.57,2.9,3.89,4.36,1.42,1.55,2.89,3.1,3.76,4.97,1.28,2.77,1.22,6.25.27,9.23-.65,1.99-1.71,3.75-3.26,5.97.04.22.09.43.15.65.06.18.12.37.18.55.07.19.15.37.22.55,2.2-1.62,4.29-3.41,6.3-5.25,2.49-2.29,4.84-4.67,7.12-7.11-.19-.62-.19-.66-.21-.69-.18-.78-.47-1.53-.77-2.3-1.11-.69-2.15-1.47-3.16-2.34-1.86-1.61-3.57-3.51-4.44-5.74-1.16-3.01-.81-6.59.41-9.66,1.06-2.67,2.77-4.94,4.5-7.21,1.28,1.46,2.57,2.9,3.91,4.36,1.42,1.55,2.88,3.1,3.75,4.97,1.28,2.77,1.24,6.25.27,9.23-.65,1.99-1.71,3.75-3.26,5.97.06.22.1.44.16.65.1.37.24.74.37,1.11,1.21-1.31,2.4-2.62,3.58-3.94-1.19,2.17-2.39,4.35-3.67,6.46-.68,1.12-1.37,2.23-2.11,3.3.32.27.6.49.87.71.27.21.52.44.78.66,1.12-.35,2.26-.63,3.44-.83,2.18-.35,4.48-.44,6.53.24,2.74.91,5.03,3.23,6.44,5.84,1.24,2.27,1.81,4.76,2.4,7.26-1.75.06-3.49.1-5.28.19-1.89.09-3.8.22-5.62-.24-2.71-.65-5.22-2.57-6.8-4.98-1.05-1.61-1.67-3.45-2.05-6.13-.53-.49-1.08-.97-1.59-1.47-.62.87-1.28,1.73-1.98,2.55-4.13,4.97-9.44,9.02-15.13,12.18.25.34.4.53.58.72.12.15.25.28.38.41,2.3-.04,4.04.04,5.75.52,2.57.71,5.04,2.32,6.41,4.53.91,1.5,1.31,3.27,1.74,5,.41,1.64.83,3.23,1.25,4.82-2.42.15-4.82.29-7.21-.22-2.74-.58-5.46-2.02-7.03-4.25-1.16-1.67-1.71-3.77-1.96-5.85-.15-1.11-.21-2.23-.19-3.33-.25-.37-.5-.74-1.18-1.56-6.25,3.27-12.92,5.57-19.6,7.93-.46.16-.93.32-1.39.49.16.35.34.71.55,1.05.12.18.25.37.37.55,2.68.38,4.69.81,6.59,1.7,2.85,1.31,5.41,3.64,6.58,6.47.78,1.9.91,4.04,1.08,6.13.16,1.96.35,3.89.55,5.82-2.83-.28-5.66-.58-8.33-1.61-3.08-1.19-5.96-3.39-7.36-6.28-1.05-2.15-1.27-4.7-1.18-7.17.04-1.33.19-2.61.43-3.91-.24-.47-.47-.96-1.06-2.12-7.93,2.85-15.78,5.91-22.92,10.37-1,.62-1.99,1.28-2.96,1.96.22.37.44.72.69,1.08.12.18.25.35.4.53,2.68.24,4.72.55,6.67,1.33,2.9,1.15,5.6,3.35,6.92,6.1.88,1.87,1.14,3.98,1.42,6.06.27,1.96.56,3.88.86,5.8-2.85-.13-5.68-.27-8.41-1.15-3.14-1.03-6.13-3.05-7.68-5.87-1.16-2.11-1.53-4.63-1.58-7.09-.01-1.33.06-2.62.22-3.92-.21-.38-.41-.75-1.02-1.77-6.87,5.09-12.87,11.49-17.37,18.71-4.75,7.64-7.82,16.19-10.51,24.79-2.21,7-4.19,14.04-6.18,21.07,15.62-2.43,31.22-4.87,44.49-11.87,1.47-.78,2.92-1.61,4.35-2.49-.12-.27-.19-.49-.25-.69-.12-.35-.22-.72-.32-1.09-1.27-.34-2.51-.77-3.72-1.28-2.26-.97-4.47-2.27-5.97-4.13-2.02-2.51-2.77-6.03-2.54-9.33.19-2.85,1.15-5.53,2.09-8.21,1.67.99,3.33,1.99,5.04,2.96,1.81,1.05,3.69,2.08,5.13,3.6,2.14,2.23,3.35,5.53,3.36,8.71.03,2.14-.49,4.25-1.74,6.99.13.52.28,1.03.41,1.55,6.22-3.94,12.17-8.46,18.67-11.87-.01-.4-.03-.65-.03-.83v-.38c.01-.37.04-.75.04-1.14-1.08-.72-2.11-1.53-3.1-2.42-1.83-1.64-3.49-3.58-4.32-5.82-1.11-3.02-.66-6.61.62-9.66,1.11-2.64,2.88-4.87,4.64-7.11,1.25,1.49,2.51,2.96,3.8,4.45,1.39,1.58,2.82,3.16,3.7,5.06,1.3,2.8,1.37,6.31.37,9.35-.68,2.02-1.84,3.85-3.91,6.05-.04.53-.07,1.06-.12,1.59.93-.46,1.87-.88,2.83-1.27,6.56-2.71,13.82-4.04,20.7-5.97-.03-.37-.07-.75-.15-1.14-.06-.38-.13-.77-.22-1.14-.97-.88-1.87-1.81-2.73-2.85-1.56-1.89-2.93-4.04-3.42-6.39-.65-3.16.29-6.64,2.01-9.47,1.49-2.45,3.55-4.41,5.62-6.36,1.03,1.65,2.06,3.29,3.13,4.95,1.15,1.75,2.34,3.52,2.88,5.51.81,2.95.19,6.37-1.25,9.14-.97,1.86-2.32,3.42-4.2,5.35.01.22.03.44.04.66.01.09.01.18.04.27.03.31.07.6.13.88,4.34-1.31,8.48-2.93,12.14-5.41,5.1-3.45,9.28-8.54,12.98-14.16-.22-.43-.24-.46-.25-.49-.18-.37-.37-.72-.59-1.06-.21-.35-.44-.68-.66-1.02-1.22-.46-2.42-.99-3.58-1.62-2.15-1.16-4.23-2.65-5.56-4.66-1.8-2.67-2.21-6.25-1.68-9.51.46-2.83,1.65-5.41,2.83-8.01,1.58,1.15,3.14,2.29,4.76,3.44,1.71,1.19,3.48,2.4,4.72,4.04,1.86,2.43,2.55,5.84,2.26,8.95-.21,2.08-.87,4.04-1.9,6.53.1.21.19.41.29.6.18.34.38.66.56.94.18-.27.34-.53.5-.8,4.6-7.4,8.57-15.39,15.59-22.31-.13-.6-.13-.65-.13-.68-.03-.21-.06-.4-.1-.59-.13-.59-.31-1.18-.49-1.77-1.05-.78-2.03-1.64-2.96-2.58-1.73-1.74-3.29-3.77-3.98-6.08-.93-3.08-.29-6.64,1.15-9.6,1.27-2.57,3.16-4.7,5.04-6.83,1.16,1.55,2.34,3.1,3.55,4.66,1.3,1.65,2.64,3.3,3.36,5.23,1.06,2.88.74,6.34-.46,9.23-.8,1.93-1.99,3.6-3.7,5.71.03.21.06.43.1.65.07.38.18.75.27,1.08,4.63-4.16,10.53-7.87,18.57-10.75-2.62,1.74-5,3.47-7.12,5.19.47.31.66.46.87.6.18.1.34.21.52.31,2.33-.69,4.14-1.11,6.03-1.11,2.8.01,5.8.94,7.8,2.83,1.36,1.25,2.27,2.95,3.2,4.6.87,1.55,1.75,3.05,2.64,4.56-2.43.84-4.85,1.67-7.43,1.83-2.96.18-6.13-.53-8.36-2.37-1.67-1.37-2.82-3.36-3.67-5.4-.46-1.11-.83-2.23-1.12-3.36-.4-.32-.8-.66-1.9-1.3-11.22,9.6-15.62,18.89-20.36,27.86.16.12.31.24.47.35.16.1.31.22.49.31.18.12.37.24.58.34,2.57-.83,4.56-1.34,6.65-1.39,3.13-.06,6.47.9,8.76,2.92,1.53,1.37,2.6,3.23,3.67,5.03,1,1.7,2.03,3.35,3.05,5-2.67.99-5.34,1.98-8.2,2.23-3.29.28-6.83-.41-9.36-2.4-1.89-1.47-3.21-3.67-4.2-5.9-.55-1.22-.99-2.45-1.34-3.7-.49-.38-.96-.75-1.46-1.09-.49.88-.97,1.78-1.47,2.67-3.73,6.53-8.26,12.87-14.07,17.22-3.95,2.98-8.51,5.01-13.27,6.75.75.56,1.33.93,1.92,1.28,2.06-.13,4.13-.15,6.16.29,3.05.68,6.08,2.4,7.82,4.93,1.16,1.7,1.75,3.75,2.37,5.75.58,1.89,1.16,3.73,1.77,5.59-2.83.32-5.65.65-8.49.21-3.26-.52-6.53-2.03-8.52-4.56-1.47-1.89-2.24-4.34-2.68-6.74-.24-1.31-.38-2.61-.43-3.91-.44-.58-.94-1.21-1.84-2.17-6.43,2.23-13.18,4.06-19.38,6.95-6.08,2.83-11.62,6.69-17.11,10.59.41.34.83.68,1.24,1,3.02,0,5.15.4,7.08,1.28,2.9,1.34,5.41,3.79,6.58,6.67.78,1.93.96,4.07,1.16,6.15.19,1.96.41,3.89.63,5.82-2.83-.24-5.68-.49-8.36-1.47-3.1-1.14-6.02-3.27-7.46-6.15-1.08-2.14-1.36-4.69-1.3-7.14.01-1.33.13-2.62.35-3.91-.29-.27-.59-.5-.87-.75-.13-.12-.25-.24-.52-.47-3.57,2.54-7.14,5.06-10.84,7.28-2.15,1.3-4.34,2.48-6.58,3.58-9.75,4.81-20.39,8.04-32.21,10.72-2.08.49-4.2.94-23.7,6.83-6.4,7.55-13.33,14.82-19.83,22.4-7.42,8.64-14.27,17.68-19.77,27.44-6.41,11.38-10.97,23.76-15.01,36.39,4.31-1.67,8.67-3.26,13.09-4.66,7.48-2.37,15.16-4.25,22.93-4.9.86-.07,1.73-.13,2.58-.18,5.1-3.38,10.2-7.4,14.36-12.21-.29-.28-.59-.55-.9-.81-.5-.44-1.02-.9-1.53-1.34-2.06-.12-4.1-.34-6.08-1.03-2.96-1.05-5.75-3.11-7.18-5.81-.96-1.83-1.3-3.94-1.67-6-.35-1.95-.72-3.85-1.11-5.75,2.85.01,5.69.03,8.46.8,3.17.9,6.24,2.79,7.92,5.54,1.24,2.03,1.73,4.56,1.87,7,.07,1.33.06,2.62-.04,3.94.32.25.63.52.93.77.32.28.62.53.9.78.32-.44.66-.87.97-1.33,5-6.97,7.95-15.67,12.68-23.79-.88-2.02-1.11-2.73-1.33-3.35-.07-.19-.13-.38-.21-.58-.22-.53-.43-1-.63-1.47-1.77-1.06-3.48-2.21-4.91-3.75-2.12-2.29-3.64-5.43-3.64-8.48,0-2.06.68-4.08,1.31-6.09.59-1.87,1.15-3.75,1.7-5.6,2.52,1.34,5.03,2.67,7.11,4.64,2.4,2.27,4.25,5.37,4.44,8.58.16,2.39-.59,4.84-1.59,7.08-.55,1.21-1.18,2.36-1.87,3.47.16.34.34.68.5,1.02.03.06.04.1.07.16.16.38.35.83.75,1.61,1.49-2.3,3.19-4.53,5.15-6.62,5.56-5.94,13.36-10.87,23.55-15.09.18-.55.32-.99.46-1.37.4-1.14.6-1.62.78-2.05.31-.8.52-1.45.72-2.09-.63-1.98-1.16-3.97-1.22-6.06-.09-3.13.84-6.47,2.85-8.77,1.36-1.55,3.21-2.62,5-3.72,1.7-1.02,3.33-2.05,4.98-3.08,1,2.65,2.01,5.32,2.29,8.17.31,3.29-.37,6.84-2.33,9.39-1.46,1.89-3.64,3.24-5.87,4.25-1.21.56-2.43,1-3.7,1.37-.22.53-.46,1.06-.63,1.5-.22.53-.38.96-.53,1.34,3.79-1.46,7.87-2.83,12.27-4.13,3.88-1.15,8.01-2.26,12.39-3.3-2.58,1.16-5.03,2.27-7.36,3.35.32.19.66.4,1.12.65.38.21.84.44,1.31.69,1.08-.46,2.2-.83,3.35-1.12,2.14-.56,4.42-.84,6.52-.34,2.82.68,5.29,2.79,6.93,5.26,1.43,2.15,2.23,4.59,3.02,7.02-1.74.21-3.48.41-5.23.65-1.87.25-3.77.53-5.6.22-2.7-.49-5.25-2.3-6.95-4.54-1.14-1.5-1.9-3.2-2.57-4.94-.52-.34-1.02-.68-1.68-1.05-.46-.27-.99-.53-2.45-1.47-.74.35-1.46.69-2.18,1.03-10.68,5.06-18.45,9.23-24.36,13.35.41.09.84.19,1.42.29.47.09,1.05.19,1.61.28,1-.84,2.05-1.62,3.17-2.33,2.06-1.31,4.39-2.39,6.78-2.58,3.2-.25,6.53,1.14,9.11,3.2,2.24,1.78,3.92,4.08,5.6,6.39-1.77.81-3.54,1.62-5.32,2.46-1.89.91-3.79,1.87-5.84,2.15-3.02.43-6.34-.63-8.91-2.42-1.71-1.19-3.1-2.73-4.39-4.34-.65-.19-1.31-.38-2.14-.55-.66-.13-1.45-.27-3.86-.53-3.57,2.76-6.37,5.54-8.76,8.61-4.88,6.3-7.95,13.79-11.32,21.01.58.07,1.18.16,1.75.21.4.03.78.04,1.16.06.81-1.02,1.7-1.98,2.67-2.89,1.78-1.67,3.86-3.17,6.18-3.79,3.11-.86,6.64-.12,9.56,1.42,2.54,1.34,4.62,3.29,6.69,5.23-1.59,1.12-3.17,2.26-4.76,3.42-1.68,1.24-3.38,2.54-5.34,3.2-2.89.99-6.34.58-9.2-.71-1.9-.86-3.55-2.09-5.13-3.44-.53-.12-1.09-.22-1.93-.28h-.1c-.75-.04-1.74-.01-2.7,0-1.47,3.04-3.04,5.99-4.87,8.76-2.54,3.85-5.57,7.33-8.8,10.66.81.01,1.62.04,2.43.07,8.41.25,16.8.41,25.05,1.87,3.36.6,6.71,1.42,9.95,2.48,1.78-4.63,3.67-9.38,5.37-14.05,1.33-3.67,2.54-7.3,3.94-10.78.84-2.08,1.74-4.11,2.79-6.06,3.05-5.75,7.26-10.82,12.43-14.89,1.86-1.46,3.83-2.79,5.9-4,6.24-3.64,13.37-6.19,20.81-7.9.41-.16.81-.32,1.22-.49,8.66-3.45,17.72-7.31,25.23-13.08,4.19-3.2,7.89-6.99,11.3-11.12-.07-.15-.09-.18-.1-.21-.19-.35-.41-.69-.65-1.02-.24-.34-.49-.66-.74-.97-1.25-.37-2.48-.83-3.67-1.39-2.23-1.03-4.41-2.37-5.85-4.28-1.96-2.57-2.62-6.1-2.3-9.39.28-2.86,1.3-5.52,2.32-8.17,1.64,1.03,3.29,2.08,4.97,3.11,1.78,1.09,3.63,2.17,4.98,3.73,2.01,2.3,2.92,5.66,2.82,8.79-.07,2.08-.6,4.07-1.46,6.64.1.21.21.4.32.59.19.32.43.63.66.96,3.21-4.08,6.19-8.48,9.1-12.96,3.44-5.31,6.77-10.76,11.38-14.47-.03-.44-.03-.49-.04-.53-.04-.4-.12-.8-.21-1.19s-.19-.8-.29-1.18c-1.02-.83-1.98-1.71-2.88-2.68-1.67-1.8-3.14-3.89-3.76-6.21-.83-3.11-.07-6.64,1.49-9.56,1.36-2.52,3.32-4.59,5.26-6.65,1.12,1.59,2.24,3.19,3.39,4.78,1.24,1.7,2.52,3.41,3.17,5.35.97,2.9.53,6.36-.77,9.2-.87,1.9-2.12,3.54-3.89,5.57.01.22.04.44.07.66.03.19.07.38.1.58.04.19.09.37.15.56,5.96-3.89,13.8-5.21,19.95-9.02,6.28-3.91,10.78-10.44,13.88-17.64-.4-.62-.43-.68-.47-.75-.21-.35-.43-.68-.66-1-.25-.32-.5-.65-.75-.96-1.27-.34-2.49-.78-3.72-1.31-2.24-.97-4.44-2.29-5.94-4.16-2.01-2.51-2.73-6.05-2.48-9.33.22-2.86,1.18-5.54,2.14-8.21,1.67,1,3.33,2.01,5.03,3.01,1.81,1.05,3.69,2.09,5.06,3.63,2.05,2.26,3.04,5.59,3.01,8.73-.03,2.08-.52,4.08-1.33,6.67.1.19.22.38.34.58.21.32.44.63.68.94.15-.37.28-.74.41-1.12.32-.88.63-1.77.94-2.64.58-1.55,1.16-3.07,1.96-4.45,2.24-3.89,6.06-6.65,10.56-8.54.22-.94.69-2.34.77-3.39-.58-1.16-1.08-2.37-1.49-3.63-.78-2.33-1.27-4.85-.87-7.21.55-3.17,2.68-6.08,5.31-8.08,2.29-1.74,4.93-2.8,7.55-3.88.37,1.92.72,3.82,1.12,5.75.41,2.06.88,4.14.66,6.19-.32,3.04-2.15,6-4.5,8.05-1.58,1.39-3.41,2.34-5.35,3.23-.43.19-.68.78-.86,2.08,1.61-.55,3.27-1,4.97-1.37-2.26,1.11-4.53,2.23-6.64,3.44-2.65,1.5-5.07,3.19-6.97,5.21.29.15.59.31.9.43.16.07.34.15.52.21,2.05-1.05,3.66-1.74,5.41-2.06,2.61-.49,5.54-.13,7.74,1.25,1.47.94,2.61,2.34,3.76,3.72,1.08,1.28,2.17,2.54,3.24,3.77-2.11,1.19-4.22,2.39-6.58,2.98-2.71.69-5.78.59-8.18-.74-1.78-.97-3.2-2.64-4.34-4.38-.62-.94-1.16-1.9-1.64-2.92-.29-.16-.6-.34-1.77-1.18-.71.88-1.31,1.83-1.8,2.85-.53,1.09-.91,2.26-1.27,3.47s-.65,2.46-1.02,3.7c-2.49,8.52-7.36,16.57-14.52,21.44-5.25,3.55-11.74,5.4-17.08,8.57.28.15.56.28.84.4.18.07.34.13.52.19,1.93-1.03,3.45-1.71,5.12-2.03,2.49-.5,5.28-.21,7.39,1.11,1.43.87,2.54,2.2,3.64,3.49,1.05,1.21,2.08,2.37,3.13,3.55-1.49.87-2.99,1.74-4.59,2.37-.53.22-1.08.4-1.64.55-2.58.69-5.5.63-7.8-.6-1.71-.91-3.08-2.48-4.19-4.11-.6-.9-1.14-1.81-1.59-2.77-.58-.31-1.16-.62-1.77-.84-.04-.01-.07-.01-.72-.24-.49.34-.97.69-1.43,1.06-4.98,4.01-8.18,10.13-11.5,16.1-5.66,10.13-11.68,19.79-19.98,27.04-2.06,1.81-4.29,3.48-6.59,5.04,6.77-.12,13.4-.04,20.01-.78,5.5-.62,10.99-1.8,16.21-3.63,3.41-10.62,6.65-21.63,13.61-28.58,2.46-2.45,5.38-4.39,8.55-6.03,5.68-2.93,12.15-4.9,18.17-7.02-.04-.32-.04-.38-.04-.43-.04-.74-.21-1.45-.35-2.15-.88-.78-1.71-1.64-2.48-2.55-1.42-1.68-2.67-3.61-3.13-5.72-.6-2.83.22-5.97,1.74-8.52,1.31-2.23,3.17-4,5.01-5.77.93,1.47,1.87,2.95,2.85,4.44,1.05,1.58,2.12,3.16,2.62,4.94.75,2.65.22,5.74-1.06,8.24-.87,1.67-2.06,3.1-3.33,4.44-.1.62-.18,1.22-.22,1.99,0,.03-.01.06-.03.53,1.8-.66,3.55-1.34,5.22-2.09,6.25-2.8,11.27-6.43,18.02-10.94.04-.87.06-.96.07-1.05.07-.49.09-.99.09-1.49,0-.31-.01-.62-.01-.93-.8-1.05-1.5-2.14-2.14-3.3-1.18-2.14-2.12-4.53-2.17-6.92-.06-3.23,1.53-6.47,3.75-8.92.47-.53.99-1.03,1.52-1.49,1.59-1.4,3.39-2.55,5.19-3.7.69,1.81,1.4,3.63,2.14,5.46.8,1.93,1.64,3.91,1.8,5.96.24,3.05-1.02,6.3-2.96,8.74-1.3,1.64-2.9,2.92-5.12,4.47-.03.22-.06.44-.09.66-.03.38-.03.78-.03,1.16,2.99-1.98,6.36-4.11,10.31-6.4-5.81,5.26-11.61,10.53-18.03,15.09.03,0,.06.01.09.03.81.25,1.47.4,2.15.53,1.9-.78,3.85-1.47,5.93-1.71,3.11-.34,6.52.31,8.98,2.12,1.65,1.22,2.88,2.98,4.11,4.67,1.15,1.61,2.32,3.16,3.48,4.7-2.57,1.22-5.13,2.45-7.95,2.95-3.26.59-6.84.21-9.56-1.55-2.01-1.3-3.52-3.36-4.72-5.5-.65-1.15-1.21-2.34-1.67-3.55-.68-.44-1.37-.9-2.09-1.22-.09-.03-.16-.07-.53-.27-2.39,1.62-4.87,3.14-7.48,4.51-11.65,6.16-25.7,9.57-33.81,18.46-4.97,5.47-7.7,12.99-9.89,21.01.53-.25,1.06-.52,1.58-.78,7.86-4.08,14.7-9.97,21.56-14.63,7.05-4.76,14.1-8.24,23.8-10.47,5.38-1.24,11.58-2.08,17.16-1.86,6.9.27,12.87,2.18,19.08,2.32.09-.38.15-.77.19-1.16.04-.4.07-.78.1-1.18-.69-1.11-1.3-2.27-1.83-3.49-.55-1.24-1-2.55-1.27-3.89-.22-1.06-.31-2.14-.22-3.2.25-3.2,2.12-6.28,4.56-8.52,2.12-1.93,4.64-3.23,7.18-4.53.53,1.87,1.05,3.73,1.62,5.63.6,2.01,1.25,4.04,1.21,6.1-.04,3.05-1.59,6.16-3.76,8.42-1.46,1.5-3.17,2.64-5.57,3.89-.07.29-.15.6-.19.91-.04.32-.07.66-.07.99,4.88-.19,9.87-1.47,14.41-3.49,1.08-.49,2.12-1.02,3.16-1.56.1-.35.19-.71.27-1.08.04-.19.07-.4.1-.59.07-.6.1-1.21.13-1.83-.72-1.09-1.36-2.23-1.93-3.42-1.05-2.21-1.83-4.66-1.73-7.05.16-3.21,1.93-6.36,4.31-8.66,2.05-2.01,4.54-3.39,7.02-4.76.59,1.86,1.18,3.7,1.8,5.57.66,1.99,1.39,4.01,1.42,6.06.04,3.07-1.42,6.22-3.51,8.54-1.4,1.56-3.08,2.74-4.84,3.83-.24.52-.46,1.05-.65,2.03,1.11-.63,2.21-1.3,3.3-1.95-.96,1.52-2.21,2.85-3.58,4.03-1.89,1.64-4,3.01-6.3,4.13.03.01.06.03.09.06.68.5,1.25.86,1.84,1.21,2.06-.13,4.13-.15,6.16.31,3.05.68,6.08,2.4,7.8,4.93,1.18,1.7,1.77,3.75,2.37,5.75.58,1.89,1.18,3.75,1.77,5.59-2.83.32-5.65.63-8.48.19-3.27-.5-6.55-2.02-8.52-4.56-.19-.24-.35-.49-.53-.74-1.15-1.75-1.78-3.89-2.15-6-.24-1.31-.38-2.61-.43-3.91-.5-.65-.99-1.28-1.58-1.84-.07-.06-.13-.12-.19-.18-2.2.9-4.56,1.58-7.05,2.03-5.57,1.02-11.81.88-16.68.58-1.25-.09-2.4-.18-3.51-.27.07.72.13,1.45.21,2.17,1.89,1.95,2.96,3.57,3.6,5.38.96,2.71.94,5.87-.19,8.42-.75,1.71-2.02,3.16-3.24,4.6-1.15,1.36-2.26,2.7-3.36,4.06-1.62-1.98-3.24-3.97-4.29-6.33-1.19-2.71-1.64-5.93-.69-8.67.71-2.03,2.18-3.8,3.79-5.31.88-.83,1.8-1.55,2.76-2.23-.01-.34-.04-.68-.06-1.03-.01-.31,0-.63-.01-1.03v-.15c-2.52-.21-4.84-.35-7.45-.25-3.61.13-7.77.75-11.84,1.78-6.89,1.75-13.49,4.75-19.36,8.69-4.72,3.17-8.97,6.97-13.46,10.45-.16.12-.32.25-.49.37,4.01,2.48,8.08,4.87,12.42,6.87,4.85,2.26,10.01,4.04,15.23,4.82v-.4c-.01-.8.03-1.49.04-2.17-1.12-1.74-2.14-3.52-2.73-5.53-.9-3.01-.86-6.47.5-9.22.9-1.86,2.42-3.36,3.86-4.88,1.37-1.42,2.7-2.85,4.03-4.26,1.65,2.32,3.3,4.63,4.31,7.31,1.14,3.1,1.4,6.69.16,9.67-.93,2.2-2.68,4.07-4.59,5.62-1.02.84-2.08,1.59-3.2,2.27-.01.38,0,.77-.01,1.15,0,.18-.01.35-.01.53,0,.06-.01.12-.01.19,2.57.24,5.13.21,7.67-.15,6.92-.97,13.57-4.35,20.81-4.14.31.01.63.03.94.07.29,0,.59.03.88.06.63-.81.99-1.24,1.31-1.62.53-.6,1-1.11,1.46-1.61.29-2.05.71-4.07,1.56-5.97,1.3-2.85,3.61-5.46,6.43-6.64,1.89-.8,4.03-.94,6.12-1.14,1.96-.18,3.89-.38,5.82-.59-.27,2.83-.53,5.66-1.55,8.35-1.16,3.08-3.32,5.97-6.21,7.4-2.14,1.06-4.69,1.31-7.14,1.25-1.33-.04-2.62-.16-3.92-.38-.25.28-.49.58-.75.86-.16.18-.32.34-.5.53,6.12,1.33,12.14,4.93,15.94,9.82-1.64-.99-3.26-1.98-4.9-2.9.01.04.03.07.04.12,0,.01.01.04.01.06.25.66.47,1.33.71,2.01,1.98,1.21,3.19,2.33,4.08,3.7,1.34,2.03,1.98,4.64,1.58,6.97-.28,1.58-1.03,3.02-1.74,4.47-.68,1.36-1.31,2.7-1.95,4.04-1.74-1.31-3.49-2.61-4.84-4.35-1.05-1.36-1.86-2.98-2.2-4.64-.16-.78-.22-1.58-.15-2.36.16-1.83,1.02-3.6,2.03-5.16.56-.86,1.16-1.65,1.83-2.4-.09-.28-.19-.55-.27-.83-.06-.24-.12-.46-.29-1.03-.1-.34-.24-.81-.44-1.46-4.32-2.34-8.7-4.19-13.14-4.44-.29-.01-.59-.03-.88-.03-3.82-.03-7.68,1.15-11.62,2.42.03.06.04.09.04.12.27.68.5,1.37.74,2.06,1.98,1.21,3.19,2.33,4.08,3.69,1.34,2.05,1.98,4.66,1.56,6.99-.28,1.58-1.02,3.02-1.74,4.47-.34.66-.66,1.34-.97,2.02-.32.66-.65,1.33-.97,2.01-1.74-1.3-3.48-2.6-4.82-4.34-1.55-1.99-2.58-4.56-2.36-7,.18-1.83,1.03-3.6,2.05-5.16.56-.86,1.15-1.65,1.81-2.4-.07-.28-.18-.56-.25-.83-.1-.35-.18-.71-.35-1.24-2.61.86-5.25,1.7-7.92,2.21-6.16,1.18-12.48.6-18.57-.94.15.53.27,1.06.4,1.61,1.84,1.39,2.95,2.62,3.72,4.07,1.14,2.15,1.52,4.81.88,7.09-.41,1.55-1.3,2.92-2.15,4.28-.8,1.28-1.55,2.57-2.32,3.83-1.61-1.46-3.21-2.92-4.39-4.78-1.36-2.14-2.12-4.78-1.68-7.2.34-1.8,1.36-3.48,2.52-4.94.63-.8,1.31-1.53,2.05-2.23-.06-.28-.13-.56-.19-.86-.03-.21-.06-.41-.1-.65-.03-.18-.06-.38-.12-.6-2.01-.56-3.98-1.22-5.91-1.96-5.85-2.24-11.31-5.15-16.78-8.05-1.86,1.25-3.52,2.32-5.1,3.24-1.58.94-3.07,1.77-4.59,2.54-7.26,3.67-15.1,6.28-23.09,7.65-7.59,1.3-15.32,1.46-23,1.95-.13.01-.25.01-.38.03-5.8.35-11.59.9-17.3,2.02-7.05,1.4-14.01,3.67-20.23,7.28-3.69,2.14-7.12,4.75-10.07,7.83-3.32,3.45-6.02,7.49-8.01,11.86-1.68,3.66-2.86,7.54-3.54,11.47-.93,5.29-.99,10.69-1.03,16.09,4.01,2.23,8.02,4.5,12.31,6.12.07.03.13.06.19.07,1.03-.84,2.12-1.93,3.32-2.9,1.7-1.36,3.63-2.45,5.6-3.42,3.89-1.95,7.93-3.48,11.78-5.43,1.43-.72,2.82-1.5,4.19-2.33-.01-.04-.03-.07-.04-.1-.03-.07-.06-.16-.09-.24-.31-.83-.59-1.64-.86-2.48-2.58-1.59-4.16-3.05-5.34-4.84-1.74-2.67-2.57-6.08-2.03-9.13.37-2.06,1.36-3.95,2.29-5.84.87-1.75,1.71-3.51,2.55-5.26,2.27,1.71,4.54,3.41,6.3,5.68,2.02,2.61,3.36,5.97,3.07,9.17-.22,2.39-1.34,4.69-2.68,6.74-.72,1.11-1.52,2.15-2.37,3.13.1.37.24.74.34,1.09.1.37.19.74.31,1.18,1.3-.83,2.58-1.7,3.82-2.61,5.91-4.34,11.12-9.51,16.26-14.95,1.45-1.52,2.88-3.05,4.32-4.56-.01-.01-.01-.03-.01-.04-.07-.19-.15-.38-.21-.58-.21-.53-.38-1.08-.58-1.61-2.08-1.3-3.36-2.48-4.32-3.92-1.42-2.17-2.08-4.93-1.64-7.4.28-1.67,1.09-3.2,1.84-4.72.71-1.43,1.39-2.86,2.06-4.28,1.84,1.39,3.69,2.77,5.1,4.6,1.64,2.12,2.71,4.84,2.48,7.43-.18,1.93-1.08,3.8-2.17,5.46-.59.9-1.22,1.74-1.93,2.54.09.29.19.59.28.88.04.18.09.35.15.55,2.11-2.17,4.28-4.25,6.56-6.1,2.29-1.84,4.67-3.45,7.23-4.72,2.39-1.18,4.91-2.05,7.56-2.79-3.58,2.43-7.17,4.85-10.44,7.62.03.01.07.03.12.06.31.15.6.32.91.47,1-.6,2.05-1.12,3.16-1.58,2.03-.86,4.26-1.46,6.41-1.25,2.88.27,5.62,2.01,7.59,4.23,1.73,1.93,2.85,4.22,3.98,6.52-1.68.44-3.38.9-5.09,1.37-1.81.52-3.66,1.08-5.53,1.06-2.79-.03-5.68-1.33-7.74-3.32-1.39-1.34-2.42-2.98-3.41-5.52-.4-.24-.8-.46-1.19-.69-.16-.09-.32-.18-.47-.27-4.13,3.7-7.7,8.04-11.27,12.33-2.54,3.05-5.06,6.08-7.71,8.98.46.12.83.19,1.19.28s.72.21,1.09.29c.96-.88,1.98-1.71,3.05-2.48,2.01-1.4,4.28-2.61,6.65-2.9,3.2-.4,6.59.83,9.28,2.76,2.32,1.68,4.1,3.89,5.88,6.1-1.73.9-3.45,1.78-5.19,2.73-1.84,1-3.7,2.05-5.75,2.48-3.02.63-6.46-.07-9.19-1.74-1.83-1.11-3.35-2.64-5.03-5.16-.84-.25-1.68-.5-2.51-.78-.07-.03-.15-.04-.22-.07-.16-.06-.32-.12-.49-.18-.72.77-1.45,1.53-2.18,2.29-4.13,4.17-8.64,8.02-13.64,11.06-3.48,2.11-7.2,3.82-10.66,5.93-1.8,1.09-3.54,2.3-5.26,3.49.55.07,1.11.12,1.67.15,5.38.34,10.81-.66,16.07-1.99,6.74-1.68,13.21-3.91,19.82-6.02,5.32-1.7,10.74-3.32,16.4-4.23,2.95-1.81,5.91-3.63,8.63-5.69.38-.29.77-.59,1.15-.9,5.35-4.36,9.6-9.94,13.83-15.66.58-.78,1.15-1.56,1.73-2.34,4.04-5.46,8.21-10.82,13.63-14.45.22-.15.44-.29.66-.43-.06-.27-.12-.49-.18-.68-.15-.59-.24-.96-.32-1.33-2.05-1.56-3.29-2.95-4.13-4.56-1.28-2.42-1.7-5.38-.99-7.95.47-1.71,1.46-3.24,2.42-4.76.88-1.45,1.74-2.86,2.6-4.29,1.8,1.64,3.6,3.29,4.9,5.35,1.52,2.39,2.37,5.35,1.86,8.05-.38,2.02-1.52,3.89-2.83,5.53-.71.88-1.46,1.7-2.29,2.46.07.32.15.63.21.96.03.13.04.28.07.41,3.94-2.24,8.38-3.79,12.81-5.32-3.05,1.78-6.1,3.57-8.98,5.62-2.51,1.78-4.88,3.79-7.06,5.97-1.09,1.09-2.14,2.24-3.14,3.42.55.1.99.15,1.4.22.38.06.75.13,1.14.21.87-.97,1.81-1.87,2.83-2.73,1.89-1.56,4.04-2.95,6.38-3.44,3.16-.66,6.64.28,9.47,1.98,2.45,1.49,4.41,3.55,6.37,5.62-1.65,1.03-3.29,2.06-4.95,3.14-1.75,1.14-3.52,2.33-5.53,2.93-2.96.88-6.44.46-9.3-.97-1.9-.96-3.54-2.36-5.41-4.73-.93-.21-1.84-.4-2.76-.62-.01,0-.03-.01-.04-.01-.1-.03-.21-.06-.72-.21-2.74,3.47-5.13,7.23-7.28,11.12-.87,1.55-1.7,3.13-2.54,4.69.13.01.27.03.41.03.21.03.41.04.62.04.19,0,.4,0,.59-.01,1.61-1.83,2.9-3.14,4.5-4.14,2.39-1.5,5.41-2.3,8.11-1.8,1.83.35,3.51,1.3,5.16,2.2,1.56.84,3.13,1.64,4.67,2.45-1.61,1.99-3.21,3.98-5.31,5.5-2.4,1.74-5.46,2.83-8.33,2.48-2.14-.27-4.17-1.34-5.99-2.61-.97-.69-1.89-1.43-2.74-2.24-.47-.06-.96-.12-1.43-.15-.25-.01-.5-.03-.75-.01-.03,0-.06,0-.49.03-1.19,2.14-2.46,4.2-3.97,6.1-1.33,1.67-2.82,3.21-4.35,4.72,1.78.06,3.54.18,5.26.32,6.67.59,12.73,1.78,18.74,3.97,1.34.47,2.67,1,4.01,1.56,7.15-10.22,14.29-20.42,24.57-24.92,1.92-.84,3.94-1.49,6.02-1.99.09-.71.15-1.37.19-1.89.01-.29.04-.53.04-.74.01-.5.01-.83,0-1.16-.97-1.58-1.86-3.21-2.34-5.03-.74-2.73-.63-5.85.65-8.29.86-1.64,2.24-2.98,3.58-4.31,1.27-1.24,2.49-2.49,3.7-3.75,1.45,2.11,2.89,4.23,3.73,6.67.96,2.82,1.12,6.06-.06,8.7-.88,1.98-2.51,3.61-4.25,4.97-.94.74-1.92,1.39-2.93,1.98,0,.09,0,.19-.01.28,0,.25,0,.5-.01.75-.03.4-.07.81-.09,1.34,4.5-.9,9.23-1.3,13.83-1.81,2.52-.29,5-.6,7.46-.88.46-.86.9-1.68,1.21-2.29.41-.81.56-1.22.71-1.64-.28-1.74-.46-3.48-.24-5.23.21-1.65.75-3.32,1.62-4.75.52-.87,1.15-1.64,1.9-2.27,1.34-1.12,3.02-1.78,4.67-2.46,1.55-.65,3.07-1.3,4.59-1.96.12.52.22,1.03.32,1.56.37,1.84.65,3.7.53,5.6-.16,2.8-1.18,5.69-3.16,7.58-1.47,1.4-3.48,2.26-5.49,2.83-1.09.29-2.18.52-3.27.66-.13.28-.25.59-.38.87,0,.01-.01.01-.01.03-.16.35-.37.71-.58,1.19,1.71-.18,3.42-.31,5.13-.4-4.78,1.62-9.56,3.26-14.54,4.39-2.83.65-5.74,1.14-8.61,1.71.5.29.81.43,1.12.56,1.67-.13,3.33-.19,5,.15,2.49.49,4.97,1.83,6.41,3.83.97,1.36,1.49,3.01,2.02,4.63.5,1.52,1.02,2.99,1.53,4.48-2.29.31-4.56.62-6.86.32-2.65-.35-5.34-1.53-6.99-3.54-1.24-1.5-1.9-3.47-2.3-5.41-.21-1.06-.35-2.11-.41-3.16-.27-.16-.55-.29-.81-.44-.34-.19-.66-.4-1.49-.83-3.49.81-6.89,1.87-9.98,3.64-.49.28-.97.59-1.46.9-7.18,4.78-12.76,13.37-18.31,21.97,2.32.93,4.64,1.8,7.06,2.49,5.32,1.5,11,2.08,16.49,1.42,0-.01-.01-.03-.01-.04-.27-.81-.49-1.65-.71-2.48-2.23-1.56-3.57-2.96-4.53-4.63-1.43-2.49-1.99-5.6-1.34-8.32.43-1.83,1.42-3.48,2.36-5.12.88-1.53,1.73-3.07,2.57-4.6,1.96,1.65,3.91,3.32,5.37,5.44,1.68,2.46,2.7,5.54,2.26,8.41-.32,2.14-1.46,4.14-2.77,5.91-.71.96-1.47,1.84-2.3,2.68.07.34.16.66.24,1,.1.44.18.9.34,1.53.72-.12,1.43-.27,2.14-.43,5.18-1.19,10.04-3.61,14.36-6.72,3.82-2.76,7.2-6.08,11.04-8.71.55-.37,1.11-.74,1.68-1.08,2.61-1.58,5.47-2.79,8.82-3.63,1.03-1.73,1.4-2.36,1.68-2.92.09-.16.16-.34.24-.49.22-.47.41-.91.58-1.34-.41-1.81-.71-3.64-.6-5.52.18-2.82,1.28-5.74,3.27-7.64,1.34-1.28,3.08-2.09,4.78-2.92.8-.4,1.59-.78,2.37-1.18s1.56-.8,2.34-1.19c.68,2.48,1.37,4.94,1.39,7.52,0,2.98-.88,6.09-2.85,8.23-1.47,1.58-3.54,2.61-5.62,3.33-1.12.4-2.26.71-3.42.93-.12.32-.22.65-.35.96-.16.43-.35.84-.63,1.62,4.87-.65,9.95-.12,14.39,1.78.88.37,1.74.81,2.58,1.28.28.15.56.31.84.47,1.3-.86,1.87-1.21,2.39-1.5.62-.35,1.16-.63,1.71-.91.87-1.65,1.81-3.24,3.13-4.6,1.95-2.03,4.69-3.55,7.43-3.7,1.84-.12,3.7.4,5.53.87,1.72.43,3.42.84,5.13,1.24Z"
     style="fill: #1112OD;"
     id="path119" />
  <metadata
     id="metadata130">
    <rdf:RDF>
      <cc:Work
         rdf:about="">
        <cc:license
           rdf:resource="http://creativecommons.org/licenses/by-nc/4.0/" />
        <dc:title>Free Tree Silhouette SVG Cut File </dc:title>
        <dc:creator>
          <cc:Agent>
            <dc:title>freepatternsarea.com</dc:title>
          </cc:Agent>
        </dc:creator>
        <dc:rights>
          <cc:Agent>
            <dc:title>https://www.freepatternsarea.com/license-agreement/</dc:title>
          </cc:Agent>
        </dc:rights>
        <dc:publisher>
          <cc:Agent>
            <dc:title>freepatternsarea.com</dc:title>
          </cc:Agent>
        </dc:publisher>
        <dc:description>Tree Svg graphic Image. Free tree silhouette cricut svg cut file.</dc:description>
      </cc:Work>
      <cc:License
         rdf:about="http://creativecommons.org/licenses/by-nc/4.0/">
        <cc:permits
           rdf:resource="http://creativecommons.org/ns#Reproduction" />
        <cc:permits
           rdf:resource="http://creativecommons.org/ns#Distribution" />
        <cc:requires
           rdf:resource="http://creativecommons.org/ns#Notice" />
        <cc:requires
           rdf:resource="http://creativecommons.org/ns#Attribution" />
        <cc:prohibits
           rdf:resource="http://creativecommons.org/ns#CommercialUse" />
        <cc:permits
           rdf:resource="http://creativecommons.org/ns#DerivativeWorks" />
      </cc:License>
    </rdf:RDF>
  </metadata>
</svg>
